<?xml version="1.0" encoding="UTF-8"?>
<svg width="152px" height="122px" viewBox="0 0 152 122" version="1.1" xmlns="http://www.w3.org/2000/svg" xmlns:xlink="http://www.w3.org/1999/xlink">
    <title>undraw_business_shop_qw5t</title>
    <g id="Design" stroke="none" stroke-width="1" fill="none" fill-rule="evenodd">
        <g id="My-Store" transform="translate(-110.000000, -173.000000)">
            <g id="undraw_business_shop_qw5t" transform="translate(110.000000, 173.000000)">
                <path d="M151.999954,116.048454 C151.999954,112.823404 118.377708,110.208984 76.902565,110.208984 C35.4274216,110.208984 1.80517578,112.823404 1.80517578,116.048454 C1.80517578,119.273504 35.4274216,121.887924 76.902565,121.887924 C118.377708,121.887924 151.999954,119.273504 151.999954,116.048454 Z" id="Oval" fill="#3F3D56" fill-rule="nonzero"></path>
                <path d="M141.397706,110.337544 L136.470703,110.804522 L137.174561,104.499512 L140.693848,105.200068 L140.693848,105.200068 L141.397706,110.337544 Z" id="Path" fill="#F2B2BB" fill-rule="nonzero"></path>
                <path d="M117.935605,41.2162676 C117.935605,41.3719496 116.840715,46.8207287 114.650935,57.5626049 C111.522677,63.4784215 111.522677,66.35849 114.650935,66.2028103 C117.779194,66.0471306 118.874084,63.2449042 117.935605,57.7961311 L122.862607,44.2520247 L120.751035,34.6777344 L117.466367,34.6777344 C117.779192,38.8810745 117.935605,41.0605855 117.935605,41.2162676 Z" id="Path" fill="#A0616A" fill-rule="nonzero"></path>
                <path d="M124.504883,110.337544 L129.431885,110.804522 L128.728028,104.499512 L125.20874,105.200068 L125.20874,105.200068 L124.504883,110.337544 Z" id="Path" fill="#F2B2BB" fill-rule="nonzero"></path>
                <path d="M118.639486,58.7299595 C118.170247,63.4003375 118.170247,66.5139249 118.639486,68.0707216 C119.343343,70.4059167 120.751058,81.1477919 120.751058,81.8483486 C120.751058,82.5489053 120.985676,83.0159444 120.751058,83.2494621 C120.51644,83.4829798 119.812581,83.4829807 120.281819,83.9500179 C120.594644,84.2613761 120.751057,84.8840936 120.751058,85.8181705 L120.751058,86.9857635 L123.80111,104.266178 C122.549807,105.667291 122.393393,106.367847 123.33187,106.367847 C124.739585,106.367847 129.901213,106.367847 129.666588,104.032658 L129.19735,103.799137 C128.728111,93.5242977 128.571698,88.1533591 128.72811,87.6863213 C128.884522,87.2192835 128.884522,86.518727 128.72811,85.5846519 C128.415284,85.117614 128.415284,84.8062546 128.72811,84.6505737 C129.040937,84.4948929 129.19735,83.7943358 129.19735,82.5489025 L131.308922,68.3042374 C132.560226,74.6870932 133.57691,78.1898798 134.358974,78.8125973 C135.141039,79.4353147 135.453865,80.5250707 135.297451,82.0818653 L136.235928,102.631546 C135.610276,104.18834 135.610276,105.122416 136.235928,105.433773 C137.174405,105.900808 141.162931,107.53544 141.397554,105.200253 C141.632178,102.865065 142.805269,82.5489023 142.805269,81.6148243 C142.805269,80.6807463 142.570651,80.2137098 142.805269,79.5131531 C143.039887,78.8125964 142.570651,78.8125973 142.805269,78.8125973 C143.039887,78.8125973 142.336031,78.1120394 142.336031,77.6450005 L142.336031,66.202569 C142.492445,64.6457758 142.648857,63.7117001 142.805269,63.400342 C143.039887,62.9333048 142.570651,62.4662661 142.805269,61.7657094 C142.961681,61.2986716 142.805268,60.2867555 142.336031,58.7299612 L131.778169,55.9277344 L119.812583,57.0953246 L118.639486,58.7299595 Z" id="Path" fill="#2F2E41" fill-rule="nonzero"></path>
                <path d="M127.554961,108.236328 C126.500583,108.257731 125.462088,108.49626 124.50491,108.936885 L123.331813,113.140225 C120.125347,115.708937 120.320863,116.837614 123.918361,116.526255 C127.515859,116.214895 129.040885,116.175976 128.493438,116.409496 C129.588329,116.098137 130.213981,115.786778 130.370393,115.47542 C130.526805,115.164062 130.370392,112.751031 129.901155,108.236328 C129.431916,109.481763 128.806265,109.870962 128.0242,109.403924 C128.806265,108.625527 128.649852,108.236328 127.554961,108.236328 Z" id="Path" fill="#2F2E41" fill-rule="nonzero"></path>
                <path d="M138.581801,108.236328 C139.636179,108.257734 140.674675,108.496263 141.631853,108.936888 L142.804948,113.140229 C146.011413,115.708939 145.815897,116.837614 142.218401,116.526255 C138.620906,116.214895 136.86126,116.175976 136.939465,116.409496 C135.844575,116.098137 135.218923,115.786778 135.06251,115.47542 C134.906097,115.164062 135.297129,112.751031 136.235607,108.236328 C136.704846,109.481765 137.330497,109.870965 138.112562,109.403927 C137.330497,108.625528 137.48691,108.236328 138.581801,108.236328 Z" id="Path" fill="#2F2E41" fill-rule="nonzero"></path>
                <path d="M128.962901,10.1579218 C128.962901,6.80472708 126.231792,4.08642578 122.862798,4.08642578 C119.493804,4.08642578 116.762695,6.80472708 116.762695,10.1579218 C116.762695,13.5111165 119.493804,16.2294178 122.862798,16.2294178 C126.231792,16.2294178 128.962901,13.5111165 128.962901,10.1579218 Z" id="Oval" fill="#F2B2BB" fill-rule="nonzero"></path>
                <path d="M121.689454,19.9658895 C121.689454,20.4329273 123.018963,21.3670028 125.677982,22.768116 L130.135751,17.1636624 C128.258798,14.517113 127.320321,12.8824807 127.320321,12.2597656 L120.750977,14.5949497 C121.376628,17.7085384 121.689454,19.4988517 121.689454,19.9658895 Z" id="Path" fill="#F2B2BB" fill-rule="nonzero"></path>
                <path d="M121.605493,19.2278218 C117.281909,23.4560606 115.120117,25.9593779 115.120117,26.7377739 L120.281743,35.8450203 C120.281743,38.0245304 120.438156,39.1921246 120.750982,39.3478031 C121.220222,39.5813208 120.750982,39.3478032 120.750982,40.2818794 C120.750982,41.2159556 119.343268,47.2874475 119.812505,48.2215309 C120.281743,49.1556143 120.750983,48.4550478 120.281743,49.856163 C119.968917,50.7902398 119.421472,53.7481484 118.639408,58.7298889 C121.454838,57.7958147 124.895922,58.1071741 128.96266,59.6639671 C133.029398,61.2207602 137.487165,60.9094008 142.335962,58.7298889 C141.084659,55.9276618 140.615421,54.0595105 140.928247,53.1254349 C141.241074,52.1913593 140.850041,50.8680853 139.75515,49.1556129 L138.582056,27.671855 C139.676945,21.2889995 139.833357,17.9418921 139.051292,17.6305327 L136.705097,16.6964458 L129.19165,15.7773438 C127.944099,18.8809544 126.303639,20.5105989 124.270271,20.6662774 C122.907014,20.3051286 122.018755,19.8256434 121.605493,19.2278218 Z" id="Path" fill="#D0CDE1" fill-rule="nonzero"></path>
                <path d="M115.120009,26.7381486 C114.337945,29.0733374 114.337945,30.7858107 115.120009,31.8755684 C115.902074,32.9653261 116.449519,34.2886016 116.762346,35.8453951 L121.454732,35.378356 L117.466203,25.1035156 L115.120009,26.7381486 Z" id="Path" fill="#D0CDE1" fill-rule="nonzero"></path>
                <path d="M117.147004,3.31991434 C118.62198,1.70366892 120.385546,0.965819289 122.437702,1.10636544 L121.57193,0.157685176 C122.982783,-0.404482638 124.329503,0.0522830884 125.612092,1.52798235 C126.623439,2.69160008 127.793581,4.05936742 128.523044,5.60014296 L129.656238,5.60014296 L129.183285,6.63664865 L130.838619,7.67315292 L129.139581,7.48696899 C129.300514,8.38181108 129.245432,9.30191153 128.978879,10.171402 L129.024422,10.9906559 C127.711472,8.96877666 127.054996,7.81729329 127.054996,7.53620577 L127.054996,8.59028244 C126.349571,7.95783957 125.996858,7.4308037 125.996858,7.00917482 L125.419695,7.74703026 L125.131115,6.58754158 L121.571932,7.74703026 L122.149093,6.79836607 L119.93663,7.11459589 L120.802402,5.95510721 C119.135039,6.86863979 118.269287,7.7119023 118.205145,8.48489475 C118.141022,9.25787648 117.692122,10.1362706 116.858446,11.1200771 L116.281285,10.0660009 C115.704107,6.90377029 116.345393,4.79561917 118.205143,3.74154758 L117.147004,3.31991434 Z" id="Path" fill="#2F2E41" fill-rule="nonzero"></path>
                <path d="M26.3867188,50.8183594 L119.619904,50.8183594 L119.619904,116.004494 L26.3867188,116.004494 Z" id="Rectangle" fill="#F2F2F2"></path>
                <path d="M34.2353516,75.6894531 L57.6451378,75.6894531 L57.6451378,116.363445 L34.2353516,116.363445 Z" id="Rectangle" fill="#3F3D56"></path>
                <path d="M38.5654297,78.1298828 L44.8713827,78.1298828 L44.8713827,83.9807458 L38.5654297,83.9807458 Z" id="Rectangle" fill="#F2F2F2"></path>
                <path d="M47.0087891,78.1298828 L53.3147421,78.1298828 L53.3147421,83.9807458 L47.0087891,83.9807458 Z" id="Rectangle" fill="#F2F2F2"></path>
                <path d="M38.5654297,86.1079102 L44.8713827,86.1079102 L44.8713827,92.1715331 L38.5654297,92.1715331 Z" id="Rectangle" fill="#F2F2F2"></path>
                <path d="M47.0087891,86.1079102 L53.3147421,86.1079102 L53.3147421,92.1715331 L47.0087891,92.1715331 Z" id="Rectangle" fill="#F2F2F2"></path>
                <path d="M56.1566527,98.7647054 C56.1566527,97.9464943 55.4902363,97.2832031 54.6681701,97.2832031 C53.8461038,97.2832031 53.1796875,97.9464943 53.1796875,98.7647054 C53.1796875,99.5829165 53.8461038,100.246208 54.6681701,100.246208 C55.4902363,100.246208 56.1566527,99.5829165 56.1566527,98.7647054 Z" id="Oval" fill="#33907C" fill-rule="nonzero"></path>
                <path d="M65.4931641,71.8286133 L111.771465,71.8286133 L111.771465,110.482376 L65.4931641,110.482376 Z" id="Rectangle" fill="#3F3D56"></path>
                <path d="M16.644043,63.0905476 L24.1595583,47.45119 L25.8414869,43.9494848 L28.0418768,39.3702621 L29.7238054,35.8685565 L31.6736298,31.8120117 L120.482063,31.8120117 L121.633621,35.8685565 L122.62812,39.3702621 L123.928604,43.9494848 L124.923103,47.45119 L129.362877,63.0905476 L129.362877,63.0905476 L16.644043,63.0905476 Z" id="Path" fill="#3F3D56" fill-rule="nonzero"></path>
                <path d="M65.4931641,97.8222656 L111.771465,97.8222656 L111.771465,98.7650399 L65.4931641,98.7650399 Z" id="Rectangle" fill="#F2F2F2"></path>
                <path d="M88.2265625,71.8286133 L89.0384628,71.8286133 L89.0384628,80.448267 L88.2265625,80.448267 Z" id="Rectangle" fill="#F2F2F2"></path>
                <path d="M89.9856298,80.4483832 C89.9856298,79.7045547 89.3797966,79.1015625 88.6324633,79.1015625 C87.8851301,79.1015625 87.2792969,79.7045547 87.2792969,80.4483832 C87.2792969,81.1922117 87.8851301,81.7952039 88.6324633,81.7952039 C89.3797966,81.7952039 89.9856298,81.1922117 89.9856298,80.4483832 Z" id="Oval" fill="#F2F2F2" fill-rule="nonzero"></path>
                <path d="M28.0419922,39.3698695 L29.7239209,35.8681641 L121.633736,35.8681641 L122.628235,39.3698695 L122.628235,39.3698695 L28.0419922,39.3698695 Z" id="Path" fill="#33907C" fill-rule="nonzero"></path>
                <path d="M24.159668,47.4509242 L25.8415967,43.9492188 L123.928711,43.9492188 L124.92321,47.4509242 L124.92321,47.4509242 L24.159668,47.4509242 Z" id="Path" fill="#33907C" fill-rule="nonzero"></path>
                <path d="M133.753069,34.1227727 C133.804975,34.7387543 134.01337,35.3314897 134.358673,35.8452835 L134.358673,35.8452835 L117.713735,43.7104588 C112.699833,44.227142 110.818533,45.5752395 112.069836,47.7547512 C113.321139,49.9342629 116.214778,49.3893849 120.750753,46.1201172 C132.638135,44.4076441 139.051063,42.6951712 139.98954,40.9826984 C140.928017,39.2702257 141.710081,34.8333628 142.335733,27.6721099 L134.827913,27.2050781 C133.922148,29.5232577 133.563867,31.8291559 133.753069,34.1227727 Z" id="Path" fill="#F2B2BB" fill-rule="nonzero"></path>
                <path d="M139.051267,17.6308594 C140.77181,17.9422188 141.8667,19.6546922 142.335938,22.7682796 C143.039796,27.4386606 143.743653,28.6062574 143.039796,28.6062574 C142.335938,28.6062574 133.889648,28.3727388 133.889648,28.1392193 C133.889648,27.9835396 134.437092,24.480753 135.53198,17.6308594 L139.051267,17.6308594 Z" id="Path" fill="#D0CDE1" fill-rule="nonzero"></path>
                <path d="M36.1045113,69.422678 C36.1045113,59.4994469 28.0222416,51.4550781 18.0522556,51.4550781 C8.08226967,51.4550781 0,59.4994469 0,69.422678 C0,79.3459091 8.08226967,87.3902779 18.0522556,87.3902779 C28.0222416,87.3902779 36.1045113,79.3459091 36.1045113,69.422678 Z" id="Oval" fill="#33907C" fill-rule="nonzero"></path>
                <path d="M33.5772247,69.4223499 C33.5772247,60.8883715 26.6264725,53.9702148 18.0522842,53.9702148 C9.47809601,53.9702148 2.52734375,60.8883715 2.52734375,69.4223499 C2.52734375,77.9563284 9.47809601,84.874485 18.0522842,84.874485 C26.6264725,84.874485 33.5772247,77.9563284 33.5772247,69.4223499 Z" id="Oval" fill="#000000" fill-rule="nonzero" opacity="0.100000001"></path>
                <path d="M17.3085284,76.291914 C16.1663008,76.2697348 14.9846507,75.868777 14.2954102,75.3121157 L14.7680182,73.8202353 C15.5870999,74.4311758 16.5804272,74.7665235 17.6039231,74.7776384 C19.0022112,74.7776384 19.9475121,73.8647044 19.9475121,72.5954857 C19.9475121,71.3707368 19.1794246,70.6137085 17.7220967,69.9456139 C15.7133193,69.05496 14.4726292,68.0305895 14.4726292,66.0933876 C14.4726292,64.2451181 15.634568,62.8422833 17.4464207,62.5082908 L17.4464207,60.2592773 L18.6673994,60.2592773 L18.6673994,62.4192505 C19.5778677,62.4316224 20.465946,62.7019474 21.2276211,63.1985645 L20.7352095,64.6682639 C20.0047083,64.1705572 19.139076,63.9064285 18.2538295,63.9111254 C16.7374634,63.9111254 16.1663009,64.9353918 16.1663009,65.8261499 C16.1663009,66.9840342 16.8949656,67.5629774 18.6083541,68.3646917 C20.6367471,69.2999161 21.6608968,70.4577996 21.6608968,72.439579 C21.6608968,74.1986951 20.5777073,75.8465957 18.5492187,76.2249413 L18.5492187,78.5409336 L17.3085284,78.5409336 L17.3085284,76.291914 Z" id="Path" fill="#F2F2F2" fill-rule="nonzero"></path>
            </g>
        </g>
    </g>
</svg>