<?xml version="1.0" encoding="UTF-8"?>
<svg width="161px" height="101px" viewBox="0 0 161 101" version="1.1" xmlns="http://www.w3.org/2000/svg" xmlns:xlink="http://www.w3.org/1999/xlink">
    <title>Done</title>
    <g id="Design" stroke="none" stroke-width="1" fill="none" fill-rule="evenodd">
        <g id="Checkout-Success" transform="translate(-106.000000, -146.000000)">
            <g id="Done" transform="translate(106.000000, 146.000000)">
                <path d="M88.3226936,22.234375 C91.1920628,22.234375 93.5181462,24.5604585 93.5181462,27.4298279 C93.5181462,30.2991973 91.1920628,32.6252808 88.3226936,32.6252808 L135.823974,32.6252808 C138.693343,32.6252808 141.019427,34.9513642 141.019427,37.8207336 C141.019427,40.690103 138.693343,43.0161865 135.823974,43.0161865 L152.152539,43.0161865 C155.021909,43.0161865 157.347992,45.34227 157.347992,48.2116394 C157.347992,51.0810088 155.021909,53.4070923 152.152539,53.4070923 L138.050597,53.4070923 C135.181227,53.4070923 132.855144,55.7331758 132.855144,58.6025452 C132.855144,61.4719146 135.181227,63.797998 138.050597,63.797998 L142.503842,63.797998 C145.373211,63.797998 147.699294,66.1240815 147.699294,68.9934509 C147.699294,71.8628203 145.373211,74.1889038 142.503842,74.1889038 L34.1415454,74.1889038 C31.2721762,74.1889038 28.9460929,71.8628203 28.9460929,68.9934509 C28.9460929,66.1240815 31.2721762,63.797998 34.1415454,63.797998 L5.19545256,63.797998 C2.32608334,63.797998 0,61.4719146 0,58.6025452 C0,55.7331758 2.32608334,53.4070923 5.19545256,53.4070923 L34.8837529,53.4070923 C37.7531222,53.4070923 40.0792055,51.0810088 40.0792055,48.2116394 C40.0792055,45.34227 37.7531222,43.0161865 34.8837529,43.0161865 L16.3285652,43.0161865 C13.459196,43.0161865 11.1331126,40.690103 11.1331126,37.8207336 C11.1331126,34.9513642 13.459196,32.6252808 16.3285652,32.6252808 L46.0168656,32.6252808 C43.1474963,32.6252808 40.821413,30.2991973 40.821413,27.4298279 C40.821413,24.5604585 43.1474963,22.234375 46.0168656,22.234375 L88.3226936,22.234375 Z M155.121234,63.7978516 C157.990603,63.7978516 160.316687,66.123935 160.316687,68.9933043 C160.316687,71.8626736 157.990603,74.1887569 155.121234,74.1887569 C152.251865,74.1887569 149.925781,71.8626736 149.925781,68.9933043 C149.925781,66.123935 152.251865,63.7978516 155.121234,63.7978516 Z" id="BG" fill="#33907C" opacity="0.200000003"></path>
                <path d="M83.6905182,14.7745398 C87.3690532,14.7786773 91.0470332,15.3481295 94.5830289,16.4801875 C97.4064841,17.3841238 100.139408,18.6467727 102.709817,20.2667407 C105.10208,21.7744347 107.35357,23.5916371 109.40624,25.7172389 C110.804351,27.1650252 112.056256,28.7000007 113.162247,30.3038185 C115.018297,32.9953089 116.463411,35.8806801 117.498943,38.8732577 C118.542718,41.8896528 119.17037,45.0149667 119.383291,48.1604169 C119.627301,51.765121 119.326634,55.3962728 118.483391,58.9202716 C117.649617,62.4046954 116.285381,65.784354 114.392718,68.9300907 C113.532176,70.3603706 112.562396,71.7422951 111.483563,73.0637186 L101.126451,81.7255643 C96.7847894,84.1285346 92.0505085,85.5514408 87.2426982,86.0004076 C81.5142191,86.5353489 75.6813516,85.6876286 70.2838465,83.4676155 C65.8454371,81.6420815 61.7014165,78.8886188 58.1518978,75.2129848 C55.9159989,72.8976439 54.0540214,70.3593213 52.5647861,67.6730346 C50.2373867,63.4748652 48.8203697,58.9153092 48.3092386,54.2807139 C47.9148837,50.704967 48.0597699,47.0845507 48.7418319,43.5509745 C49.4038588,40.1211948 50.571966,36.7732292 52.2442657,33.6273326 C53.9523597,30.4141007 56.1864603,27.4116816 58.9445545,24.7482208 C61.1392872,22.628792 63.5369392,20.8484484 66.0729476,19.4059487 C68.9578537,17.7649934 72.0218058,16.5612342 75.1697525,15.7928511 C77.965939,15.1103291 80.8283967,14.7713204 83.6905182,14.7745398 Z M109.378951,75.4929433 C108.074652,76.9545267 106.069821,78.7649263 103.814932,80.2159892 Z" id="Shape" stroke="#33907C" stroke-width="2.5" fill="#FFFFFF" stroke-linecap="round" stroke-dasharray="0,0"></path>
                <g id="bling" transform="translate(110.959961, 8.132812)" stroke="#33907C" stroke-dasharray="0,0" stroke-linecap="round" stroke-linejoin="round" stroke-width="2.5">
                    <line x1="7.42188501" y1="0" x2="7.42188501" y2="4.45324516" id="Line"></line>
                    <line x1="7.42188501" y1="10.390625" x2="7.42188501" y2="14.8438702" id="Line"></line>
                    <line x1="2.22662258" y1="5.1952424" x2="2.22662258" y2="9.64848757" id="Line" transform="translate(2.226623, 7.421865) scale(-1, -1) rotate(90.000000) translate(-2.226623, -7.421865) "></line>
                    <line x1="12.6172476" y1="5.1952424" x2="12.6172476" y2="9.64848757" id="Line" transform="translate(12.617248, 7.421865) scale(-1, -1) rotate(90.000000) translate(-12.617248, -7.421865) "></line>
                </g>
                <g id="bling" transform="translate(50.841309, 84.580078)" stroke="#33907C" stroke-dasharray="0,0" stroke-linecap="round" stroke-linejoin="round" stroke-width="2.5">
                    <line x1="5.93751001" y1="0" x2="5.93751001" y2="2.96883011" id="Line"></line>
                    <line x1="5.93751001" y1="8.90625" x2="5.93751001" y2="11.8750801" id="Line"></line>
                    <line x1="1.48441505" y1="4.45307493" x2="1.48441505" y2="7.42190504" id="Line" transform="translate(1.484415, 5.937490) scale(-1, -1) rotate(90.000000) translate(-1.484415, -5.937490) "></line>
                    <line x1="10.3911533" y1="4.45307493" x2="10.3911533" y2="7.42190504" id="Line" transform="translate(10.391153, 5.937490) scale(-1, -1) rotate(90.000000) translate(-10.391153, -5.937490) "></line>
                </g>
                <path d="M57.8664999,33.2396208 L55.4032556,37.7327881 C55.6958615,37.0746875 56.0123585,36.4248292 56.3527255,35.7845376 C56.8135743,34.9175982 57.318183,34.0681968 57.8664999,33.2396208 Z M72.8716652,21.271111 L59.9998019,30.3867362 C60.6893764,29.5673213 61.4277956,28.7755717 62.2149982,28.0153789 C64.1353894,26.1608786 66.2333357,24.6030772 68.4523433,23.3408897 C69.8803346,22.528638 71.3584603,21.8388084 72.8716652,21.271111 Z" id="Shape" stroke="#33907C" stroke-width="2.5" fill="#FFFFFF" stroke-linecap="round" stroke-dasharray="0,0"></path>
                <path d="M66.0081049,50.1370554 C65.0207415,51.2029134 65.096549,52.8562566 66.1774257,53.8299007 L78.6527004,65.0675163 C80.1659278,66.430618 82.5132239,66.3259625 83.8955326,64.8337612 C83.9533359,64.7703813 83.9533336,64.7703805 84.0091133,64.7052612 L101.81226,43.5907884 C102.748217,42.4807457 102.594411,40.8326774 101.468727,39.9097248 C100.343043,38.9867722 98.6717555,39.1384387 97.7357979,40.2484814 L80.9979801,60.0994797 L69.7529845,49.970088 C68.6721078,48.9964439 66.9954683,49.0711974 66.0081049,50.1370554 Z" id="Path-7" stroke="#33907C" stroke-width="2.5" fill="#FFFFFF" fill-rule="nonzero" stroke-dasharray="0,0"></path>
            </g>
        </g>
    </g>
</svg>