<?xml version="1.0" encoding="UTF-8"?>
<svg width="303px" height="240px" viewBox="0 0 303 240" version="1.1" xmlns="http://www.w3.org/2000/svg" xmlns:xlink="http://www.w3.org/1999/xlink">
    <title>Group 4</title>
    <g id="Design" stroke="none" stroke-width="1" fill="none" fill-rule="evenodd">
        <g id="Onboarding_3" transform="translate(-36.000000, -253.000000)">
            <g id="Group-4" transform="translate(36.218872, 253.000000)">
                <g id="Group" transform="translate(0.000000, 211.959961)" fill="#FFFFFF" fill-rule="nonzero" opacity="0.300000012">
                    <path d="M302,14 C302,6.26801348 234.394997,0 151,0 C67.6050034,0 0,6.26801348 0,14 C0,21.7319865 67.6050034,28 151,28 C234.394997,28 302,21.7319865 302,14 Z" id="Oval"></path>
                </g>
                <g id="Group-2" transform="translate(7.781128, 0.000000)">
                    <g id="Group" transform="translate(0.000000, 45.193359)">
                        <path d="M225.94979,116.521236 C225.687678,115.958745 225.347902,115.13478 224.877879,114.182499 C223.954014,112.268253 222.62161,109.776183 221.191318,107.341411 C219.752936,104.909867 218.219093,102.535622 216.990239,100.800534 C216.385116,99.9281478 215.826104,99.2324988 215.46125,98.7305338 C215.209925,98.4012707 215.006329,98.1457151 214.850464,97.9638672 C214.934599,98.1871421 215.059722,98.4886976 215.225835,98.8685338 C215.488756,99.4310251 215.826104,100.255797 216.297745,101.207271 C217.219183,103.122323 218.554823,105.612779 219.985116,108.048358 C221.424307,110.479095 222.959767,112.852534 224.187812,114.586815 C224.793744,115.459201 225.350329,116.156463 225.715992,116.658428 C225.967857,116.988229 226.171183,117.244054 226.32597,117.425901 C226.241835,117.202628 226.116442,116.901073 225.94979,116.521236 Z" id="Fill-5" fill="#F3F8FF"></path>
                        <path d="M232.659668,104.807791 C232.339308,104.152493 231.917017,103.193756 231.348298,102.080879 C230.22704,99.8454406 228.629287,96.924036 226.936882,94.0599308 C225.23477,91.2006676 223.437197,88.3987031 222.010949,86.3432295 C221.307129,85.30944 220.667219,84.480633 220.243309,83.885054 C219.953152,83.4928435 219.719624,83.1880598 219.542725,82.9707031 C219.648432,83.2300248 219.804028,83.5808084 220.009511,84.023054 C220.329062,84.6799663 220.749736,85.638703 221.319264,86.7515802 C222.439713,88.9878259 224.039084,91.9076159 225.732297,94.7709141 C227.435219,97.6301773 229.233601,100.431335 230.659848,102.487616 C231.364477,103.520598 232.00277,104.351019 232.42668,104.945791 C232.716298,105.33854 232.949556,105.643592 233.126455,105.860949 C233.020208,105.601627 232.864612,105.250574 232.659668,104.807791 Z" id="Fill-7" fill="#F3F8FF"></path>
                        <path d="M239.550864,93.3913536 C239.288752,92.8296694 238.948976,92.0057036 238.478953,91.0534229 C237.555897,89.1391773 236.222684,86.6471069 234.792392,84.2115278 C233.35401,81.780791 231.820167,79.4065458 230.591313,77.671458 C229.98619,76.799072 229.427988,76.103423 229.062325,75.6014581 C228.810999,75.2716569 228.607403,75.0158323 228.451538,74.8339844 C228.535673,75.0577973 228.661066,75.3596218 228.827718,75.7394581 C229.08983,76.3019493 229.427988,77.1267211 229.898819,78.0781949 C230.821066,79.9924405 232.156707,82.4837039 233.586999,84.9192829 C235.025381,87.3492126 236.560841,89.7226511 237.788886,91.4577389 C238.394819,92.3301249 238.952212,93.0265805 239.317066,93.5285454 C239.568931,93.8583465 239.772257,94.1144405 239.927044,94.2968273 C239.842909,94.0730144 239.717516,93.7711898 239.550864,93.3913536 Z" id="Fill-9" fill="#F3F8FF"></path>
                        <path d="M245.687181,80.1775408 C245.007631,78.6781021 244.00044,76.7380323 242.89617,74.8552604 C241.783002,72.9765235 240.575181,71.1542777 239.589833,69.833997 C238.939945,68.9500438 238.362597,68.2342192 237.857788,67.6865234 C238.092395,68.3929327 238.438912,69.2443362 238.897339,70.2407339 C239.575271,71.7409794 240.584889,73.6802428 241.689159,75.5622077 C242.803136,77.4401375 244.013383,79.2615758 244.997114,80.5826635 C245.646462,81.4666168 246.223271,82.1827105 246.727541,82.7309446 C246.492395,82.0250731 246.145608,81.1739384 245.687181,80.1775408 Z" id="Fill-11" fill="#F3F8FF"></path>
                        <path d="M225.293876,120.983648 C225.911943,121.057893 226.792932,121.202349 227.851898,121.304034 C229.969831,121.526771 232.795629,121.705928 235.624662,121.772911 C238.452887,121.830209 241.284348,121.777753 243.409561,121.646209 C244.471763,121.591332 245.358414,121.483192 245.978909,121.437192 C246.392032,121.397379 246.717246,121.35918 246.95455,121.322595 C246.719403,121.276326 246.396077,121.224139 245.984571,121.166034 C245.367313,121.092595 244.486325,120.945718 243.42655,120.844841 C241.309426,120.62049 238.483628,120.443753 235.654594,120.377578 C232.82637,120.321086 229.994909,120.375964 227.869696,120.5067 C226.806685,120.561578 225.920842,120.668104 225.300348,120.714104 C224.886685,120.754455 224.561471,120.792385 224.324707,120.827893 C224.559853,120.874162 224.882909,120.92608 225.293876,120.983648 Z" id="Fill-17" fill="#F3F8FF"></path>
                        <path d="M229.607886,148.421709 C229.95656,148.935779 230.424156,149.694376 231.040605,150.559499 C232.259751,152.30185 233.975616,154.548586 235.778043,156.723498 C237.587751,158.893569 239.482403,160.992622 240.974178,162.508201 C241.711976,163.27406 242.374537,163.871253 242.815436,164.308657 C243.11692,164.593803 243.358807,164.813581 243.5411,164.967991 C243.422987,164.760317 243.251212,164.482703 243.025774,164.135147 C242.676291,163.621077 242.210313,162.861674 241.593055,161.997358 C240.374718,160.2542 238.657234,158.008271 236.854807,155.833359 C235.044291,153.664096 233.148021,151.566657 231.657055,150.050271 C230.919257,149.286025 230.257504,148.686411 229.815796,148.249008 C229.514853,147.963861 229.273235,147.743815 229.090942,147.588867 C229.210133,147.79654 229.382448,148.074154 229.607886,148.421709 Z" id="Fill-46" fill="#F3F8FF"></path>
                        <path d="M242.929532,146.105309 C243.34697,146.704923 243.912453,147.586187 244.647824,148.598186 C246.100768,150.635099 248.13133,153.274046 250.248453,155.84359 C252.372049,158.405063 254.582206,160.897135 256.310206,162.708082 C257.165308,163.620819 257.926565,164.341484 258.436228,164.864431 C258.784093,165.207145 259.062385,165.472385 259.271105,165.660151 C259.126027,165.41966 258.917847,165.096853 258.646566,164.69173 C258.229937,164.092116 257.664453,163.210046 256.929892,162.198853 C255.476139,160.161133 253.445577,157.523801 251.326836,154.955064 C249.202431,152.392783 246.992274,149.90152 245.264274,148.090573 C244.409173,147.178643 243.648723,146.457169 243.138251,145.933415 C242.791465,145.591239 242.513712,145.325999 242.304993,145.137695 C242.450611,145.377649 242.65879,145.700187 242.929532,146.105309 Z" id="Fill-48" fill="#F3F8FF"></path>
                        <path d="M218.520745,140.730915 C218.46088,140.11274 218.415576,139.223408 218.289374,138.169443 C218.058003,136.058285 217.632475,133.265196 217.096116,130.494705 C216.550857,127.724214 215.896385,124.97632 215.317149,122.932144 C215.037239,121.908039 214.742767,121.067127 214.565599,120.472355 C214.438318,120.077454 214.331531,119.768635 214.245239,119.545898 C214.250093,119.784238 214.267891,120.110273 214.298633,120.524004 C214.357689,121.142179 214.401374,122.031512 214.527576,123.085477 C214.758138,125.197442 215.186093,127.989723 215.723262,130.761022 C216.26852,133.529899 216.925419,136.2786 217.504655,138.321968 C217.784565,139.346073 218.077419,140.187792 218.253778,140.782564 C218.381599,141.176927 218.488116,141.485746 218.573329,141.709021 C218.568475,141.470143 218.550947,141.144108 218.520745,140.730915 Z" id="Fill-62" fill="#F3F8FF"></path>
                        <path d="M228.755484,131.913153 C228.672967,131.188451 228.593686,130.144978 228.428652,128.906206 C228.11881,126.425434 227.586495,123.140873 226.944967,119.878101 C226.29454,116.616943 225.534091,113.376768 224.875574,110.965399 C224.556023,109.757294 224.229192,108.763048 224.028562,108.060136 C223.885641,107.594218 223.766989,107.229446 223.672607,106.96582 C223.686091,107.245586 223.715753,107.628113 223.761596,108.113399 C223.843304,108.838101 223.920967,109.882382 224.08681,111.120347 C224.396652,113.601926 224.930585,116.88568 225.572922,120.148452 C226.224158,123.40961 226.985416,126.648978 227.644742,129.061153 C227.964293,130.268452 228.288697,131.263505 228.490136,131.966417 C228.632518,132.432335 228.75063,132.797107 228.844472,133.060732 C228.830989,132.780966 228.801326,132.398439 228.755484,131.913153 Z" id="Fill-64" fill="#F3F8FF"></path>
                        <path d="M239.063836,123.435186 C239.003161,122.817818 238.958667,121.928486 238.832465,120.874521 C238.601094,118.762556 238.174757,115.970275 237.639206,113.198977 C237.093948,110.429292 236.439476,107.681398 235.859431,105.637222 C235.579521,104.613117 235.285858,103.772205 235.10869,103.177433 C234.981409,102.782532 234.874622,102.473713 234.78833,102.250977 C234.793184,102.489316 234.810712,102.815351 234.840914,103.229082 C234.90078,103.847257 234.944465,104.736591 235.070667,105.790555 C235.301229,107.90252 235.729184,110.694802 236.266353,113.4661 C236.811611,116.234977 237.467701,118.983678 238.047746,121.027046 C238.327656,122.050344 238.62051,122.89287 238.796869,123.487642 C238.92469,123.882005 239.031206,124.190824 239.11642,124.414099 C239.111566,124.175221 239.094038,123.848917 239.063836,123.435186 Z" id="Fill-66" fill="#F3F8FF"></path>
                        <path d="M216.413087,144.721807 C216.971289,144.996193 217.75439,145.425526 218.718705,145.872614 C220.640862,146.786158 223.246615,147.893386 225.891199,148.895701 C228.539828,149.888333 231.227289,150.778474 233.274839,151.36114 C234.294974,151.662158 235.167064,151.855035 235.767334,152.016438 C236.17075,152.115971 236.49003,152.188064 236.725176,152.232719 C236.519154,152.111128 236.231963,151.954567 235.863604,151.763035 C235.30621,151.488649 234.523917,151.057702 233.559603,150.610614 C231.637445,149.696263 229.030884,148.591456 226.3863,147.589947 C223.736862,146.597316 221.049402,145.709596 219.001851,145.126123 C217.980907,144.825912 217.109626,144.631421 216.509356,144.46921 C216.105941,144.369678 215.78666,144.297585 215.551514,144.25293 C215.757536,144.37452 216.044727,144.530813 216.413087,144.721807 Z" id="Fill-74" fill="#F3F8FF"></path>
                        <path d="M225.94979,116.521236 C225.687678,115.958745 225.347902,115.13478 224.877879,114.182499 C223.954014,112.268253 222.62161,109.776183 221.191318,107.341411 C219.752936,104.909867 218.219093,102.535622 216.990239,100.800534 C216.385116,99.9281478 215.826104,99.2324988 215.46125,98.7305338 C215.209925,98.4012707 215.006329,98.1457151 214.850464,97.9638672 C214.934599,98.1871421 215.059722,98.4886976 215.225835,98.8685338 C215.488756,99.4310251 215.826104,100.255797 216.297745,101.207271 C217.219183,103.122323 218.554823,105.612779 219.985116,108.048358 C221.424307,110.479095 222.959767,112.852534 224.187812,114.586815 C224.793744,115.459201 225.350329,116.156463 225.715992,116.658428 C225.967857,116.988229 226.171183,117.244054 226.32597,117.425901 C226.241835,117.202628 226.116442,116.901073 225.94979,116.521236 Z" id="Fill-90" fill="#F3F8FF"></path>
                        <path d="M232.659668,104.807791 C232.339308,104.152493 231.917017,103.193756 231.348298,102.080879 C230.22704,99.8454406 228.629287,96.924036 226.936882,94.0599308 C225.23477,91.2006676 223.437197,88.3987031 222.010949,86.3432295 C221.307129,85.30944 220.667219,84.480633 220.243309,83.885054 C219.953152,83.4928435 219.719624,83.1880598 219.542725,82.9707031 C219.648432,83.2300248 219.804028,83.5808084 220.009511,84.023054 C220.329062,84.6799663 220.749736,85.638703 221.319264,86.7515802 C222.439713,88.9878259 224.039084,91.9076159 225.732297,94.7709141 C227.435219,97.6301773 229.233601,100.431335 230.659848,102.487616 C231.364477,103.520598 232.00277,104.351019 232.42668,104.945791 C232.716298,105.33854 232.949556,105.643592 233.126455,105.860949 C233.020208,105.601627 232.864612,105.250574 232.659668,104.807791 Z" id="Fill-92" fill="#F3F8FF"></path>
                        <path d="M239.550864,93.3913536 C239.288752,92.8296694 238.948976,92.0057036 238.478953,91.0534229 C237.555897,89.1391773 236.222684,86.6471069 234.792392,84.2115278 C233.35401,81.780791 231.820167,79.4065458 230.591313,77.671458 C229.98619,76.799072 229.427988,76.103423 229.062325,75.6014581 C228.810999,75.2716569 228.607403,75.0158323 228.451538,74.8339844 C228.535673,75.0577973 228.661066,75.3596218 228.827718,75.7394581 C229.08983,76.3019493 229.427988,77.1267211 229.898819,78.0781949 C230.821066,79.9924405 232.156707,82.4837039 233.586999,84.9192829 C235.025381,87.3492126 236.560841,89.7226511 237.788886,91.4577389 C238.394819,92.3301249 238.952212,93.0265805 239.317066,93.5285454 C239.568931,93.8583465 239.772257,94.1144405 239.927044,94.2968273 C239.842909,94.0730144 239.717516,93.7711898 239.550864,93.3913536 Z" id="Fill-94" fill="#F3F8FF"></path>
                        <path d="M225.293876,120.983648 C225.911943,121.057893 226.792932,121.202349 227.851898,121.304034 C229.969831,121.526771 232.795629,121.705928 235.624662,121.772911 C238.452887,121.830209 241.284348,121.777753 243.409561,121.646209 C244.471763,121.591332 245.358414,121.483192 245.978909,121.437192 C246.392032,121.397379 246.717246,121.35918 246.95455,121.322595 C246.719403,121.276326 246.396077,121.224139 245.984571,121.166034 C245.367313,121.092595 244.486325,120.945718 243.42655,120.844841 C241.309426,120.62049 238.483628,120.443753 235.654594,120.377578 C232.82637,120.321086 229.994909,120.375964 227.869696,120.5067 C226.806685,120.561578 225.920842,120.668104 225.300348,120.714104 C224.886685,120.754455 224.561471,120.792385 224.324707,120.827893 C224.559853,120.874162 224.882909,120.92608 225.293876,120.983648 Z" id="Fill-102" fill="#F3F8FF"></path>
                        <path d="M229.607886,148.421709 C229.95656,148.935779 230.424156,149.694376 231.040605,150.559499 C232.259751,152.30185 233.975616,154.548586 235.778043,156.723498 C237.587751,158.893569 239.482403,160.992622 240.974178,162.508201 C241.711976,163.27406 242.374537,163.871253 242.815436,164.308657 C243.11692,164.593803 243.358807,164.813581 243.5411,164.967991 C243.422987,164.760317 243.251212,164.482703 243.025774,164.135147 C242.676291,163.621077 242.210313,162.861674 241.593055,161.997358 C240.374718,160.2542 238.657234,158.008271 236.854807,155.833359 C235.044291,153.664096 233.148021,151.566657 231.657055,150.050271 C230.919257,149.286025 230.257504,148.686411 229.815796,148.249008 C229.514853,147.963861 229.273235,147.743815 229.090942,147.588867 C229.210133,147.79654 229.382448,148.074154 229.607886,148.421709 Z" id="Fill-131" fill="#F3F8FF"></path>
                        <path d="M242.929532,146.105309 C243.34697,146.704923 243.912453,147.586187 244.647824,148.598186 C246.100768,150.635099 248.13133,153.274046 250.248453,155.84359 C252.372049,158.405063 254.582206,160.897135 256.310206,162.708082 C257.165308,163.620819 257.926565,164.341484 258.436228,164.864431 C258.784093,165.207145 259.062385,165.472385 259.271105,165.660151 C259.126027,165.41966 258.917847,165.096853 258.646566,164.69173 C258.229937,164.092116 257.664453,163.210046 256.929892,162.198853 C255.476139,160.161133 253.445577,157.523801 251.326836,154.955064 C249.202431,152.392783 246.992274,149.90152 245.264274,148.090573 C244.409173,147.178643 243.648723,146.457169 243.138251,145.933415 C242.791465,145.591239 242.513712,145.325999 242.304993,145.137695 C242.450611,145.377649 242.65879,145.700187 242.929532,146.105309 Z" id="Fill-133" fill="#F3F8FF"></path>
                        <path d="M218.520745,140.730915 C218.46088,140.11274 218.415576,139.223408 218.289374,138.169443 C218.058003,136.058285 217.632475,133.265196 217.096116,130.494705 C216.550857,127.724214 215.896385,124.97632 215.317149,122.932144 C215.037239,121.908039 214.742767,121.067127 214.565599,120.472355 C214.438318,120.077454 214.331531,119.768635 214.245239,119.545898 C214.250093,119.784238 214.267891,120.110273 214.298633,120.524004 C214.357689,121.142179 214.401374,122.031512 214.527576,123.085477 C214.758138,125.197442 215.186093,127.989723 215.723262,130.761022 C216.26852,133.529899 216.925419,136.2786 217.504655,138.321968 C217.784565,139.346073 218.077419,140.187792 218.253778,140.782564 C218.381599,141.176927 218.488116,141.485746 218.573329,141.709021 C218.568475,141.470143 218.550947,141.144108 218.520745,140.730915 Z" id="Fill-147" fill="#F3F8FF"></path>
                        <path d="M228.755484,131.913153 C228.672967,131.188451 228.593686,130.144978 228.428652,128.906206 C228.11881,126.425434 227.586495,123.140873 226.944967,119.878101 C226.29454,116.616943 225.534091,113.376768 224.875574,110.965399 C224.556023,109.757294 224.229192,108.763048 224.028562,108.060136 C223.885641,107.594218 223.766989,107.229446 223.672607,106.96582 C223.686091,107.245586 223.715753,107.628113 223.761596,108.113399 C223.843304,108.838101 223.920967,109.882382 224.08681,111.120347 C224.396652,113.601926 224.930585,116.88568 225.572922,120.148452 C226.224158,123.40961 226.985416,126.648978 227.644742,129.061153 C227.964293,130.268452 228.288697,131.263505 228.490136,131.966417 C228.632518,132.432335 228.75063,132.797107 228.844472,133.060732 C228.830989,132.780966 228.801326,132.398439 228.755484,131.913153 Z" id="Fill-149" fill="#F3F8FF"></path>
                        <path d="M239.063836,123.435186 C239.003161,122.817818 238.958667,121.928486 238.832465,120.874521 C238.601094,118.762556 238.174757,115.970275 237.639206,113.198977 C237.093948,110.429292 236.439476,107.681398 235.859431,105.637222 C235.579521,104.613117 235.285858,103.772205 235.10869,103.177433 C234.981409,102.782532 234.874622,102.473713 234.78833,102.250977 C234.793184,102.489316 234.810712,102.815351 234.840914,103.229082 C234.90078,103.847257 234.944465,104.736591 235.070667,105.790555 C235.301229,107.90252 235.729184,110.694802 236.266353,113.4661 C236.811611,116.234977 237.467701,118.983678 238.047746,121.027046 C238.327656,122.050344 238.62051,122.89287 238.796869,123.487642 C238.92469,123.882005 239.031206,124.190824 239.11642,124.414099 C239.111566,124.175221 239.094038,123.848917 239.063836,123.435186 Z" id="Fill-151" fill="#F3F8FF"></path>
                        <path d="M216.413087,144.721807 C216.971289,144.996193 217.75439,145.425526 218.718705,145.872614 C220.640862,146.786158 223.246615,147.893386 225.891199,148.895701 C228.539828,149.888333 231.227289,150.778474 233.274839,151.36114 C234.294974,151.662158 235.167064,151.855035 235.767334,152.016438 C236.17075,152.115971 236.49003,152.188064 236.725176,152.232719 C236.519154,152.111128 236.231963,151.954567 235.863604,151.763035 C235.30621,151.488649 234.523917,151.057702 233.559603,150.610614 C231.637445,149.696263 229.030884,148.591456 226.3863,147.589947 C223.736862,146.597316 221.049402,145.709596 219.001851,145.126123 C217.980907,144.825912 217.109626,144.631421 216.509356,144.46921 C216.105941,144.369678 215.78666,144.297585 215.551514,144.25293 C215.757536,144.37452 216.044727,144.530813 216.413087,144.721807 Z" id="Fill-159" fill="#F3F8FF"></path>
                        <path d="M49.0650836,116.521236 C49.3271959,115.958745 49.6669712,115.13478 50.1369936,114.182499 C51.0600498,112.268253 52.3940723,109.776183 53.8235555,107.341411 C55.2619375,104.909867 56.7957804,102.535622 58.0246344,100.800534 C58.6297579,99.9281478 59.1879603,99.2324988 59.5536232,98.7305338 C59.8054884,98.4012707 60.0090838,98.1457151 60.1644096,97.9638672 C60.0802749,98.1871421 59.9548816,98.4886976 59.7882299,98.8685338 C59.5261176,99.4310251 59.1879602,100.255797 58.7171288,101.207271 C57.7948816,103.122323 56.4600499,105.612779 55.0289488,108.048358 C53.5905668,110.479095 52.0551062,112.852534 50.8270612,114.586815 C50.2211286,115.459201 49.6645443,116.156463 49.2988814,116.658428 C49.0470162,116.988229 48.8436903,117.244054 48.6889038,117.425901 C48.7730386,117.202628 48.8984319,116.901073 49.0650836,116.521236 Z" id="Fill-175" fill="#F3F8FF"></path>
                        <path d="M42.3550922,104.807791 C42.6754517,104.152493 43.0977439,103.193756 43.666463,102.080879 C44.7869124,99.8454406 46.384665,96.924036 48.0778785,94.0599308 C49.7799908,91.2006676 51.5775636,88.3987031 53.0038109,86.3432295 C53.7076311,85.30944 54.3475412,84.480633 54.7706423,83.885054 C55.0607996,83.4928435 55.2945976,83.1880598 55.4720364,82.9707031 C55.3663279,83.2300248 55.2107322,83.5808084 55.005249,84.023054 C54.6856984,84.6799663 54.2650247,85.638703 53.6954966,86.7515802 C52.5750471,88.9878259 50.9756763,91.9076159 49.2816539,94.7709141 C47.5795416,97.6301773 45.7811598,100.431335 44.3549125,102.487616 C43.6502833,103.520598 43.0111821,104.351019 42.58889,104.945791 C42.2987327,105.33854 42.0652046,105.643592 41.8883057,105.860949 C41.9945529,105.601627 42.1501484,105.250574 42.3550922,104.807791 Z" id="Fill-177" fill="#F3F8FF"></path>
                        <path d="M35.4635821,93.3913536 C35.7265035,92.8296694 36.0654698,92.0057036 36.5363013,91.0534229 C37.4585484,89.1391773 38.7925708,86.6471069 40.222054,84.2115278 C41.660436,81.780791 43.1942787,79.4065458 44.4239416,77.671458 C45.0290652,76.799072 45.5872678,76.103423 45.9521217,75.6014581 C46.2039869,75.2716569 46.4075824,75.0158323 46.5629082,74.8339844 C46.4787734,75.0577973 46.3533802,75.3596218 46.1867285,75.7394581 C45.9246161,76.3019493 45.5864587,77.1267211 45.1156273,78.0781949 C44.1933801,79.9924405 42.8585484,82.4837039 41.4274473,84.9192829 C39.9890653,87.3492126 38.4536047,89.7226511 37.2255597,91.4577389 C36.6196271,92.3301249 36.0630428,93.0265805 35.6973799,93.5285454 C35.4455147,93.8583465 35.2421889,94.1144405 35.0874023,94.2968273 C35.1715372,94.0730144 35.2969304,93.7711898 35.4635821,93.3913536 Z" id="Fill-179" fill="#F3F8FF"></path>
                        <path d="M49.7204723,120.983648 C49.1032139,121.057893 48.2214171,121.202349 47.1624508,121.304034 C45.0445182,121.526771 42.21872,121.705928 39.3904953,121.772911 C36.5622706,121.830209 33.7308102,121.777753 31.6055968,121.646209 C30.5425855,121.591332 29.6559338,121.483192 29.0362484,121.437192 C28.6225855,121.397379 28.297372,121.35918 28.0606079,121.322595 C28.2952147,121.276326 28.6182708,121.224139 29.0297765,121.166034 C29.6478439,121.092595 30.5288326,120.945718 31.5877988,120.844841 C33.7049224,120.62049 36.5315289,120.443753 39.3597536,120.377578 C42.1887872,120.321086 45.0194395,120.375964 47.145462,120.5067 C48.2076643,120.561578 49.0943153,120.668104 49.7140007,120.714104 C50.1276636,120.754455 50.4528774,120.792385 50.689642,120.827893 C50.4550345,120.874162 50.131978,120.92608 49.7204723,120.983648 Z" id="Fill-187" fill="#F3F8FF"></path>
                        <path d="M45.4072285,148.421709 C45.0577453,148.935779 44.590149,149.694376 43.9736996,150.559499 C42.7553625,152.30185 41.0386888,154.548586 39.2362618,156.723498 C37.4273629,158.893569 35.5319023,160.992622 34.040936,162.508201 C33.3031383,163.27406 32.6405764,163.871253 32.1988685,164.308657 C31.8973854,164.593803 31.6554977,164.813581 31.4732056,164.967991 C31.5918573,164.760317 31.7639022,164.482703 31.9893404,164.135147 C32.3388236,163.621077 32.8048011,162.861674 33.4220595,161.997358 C34.6395876,160.2542 36.3570704,158.008271 38.1603065,155.833359 C39.9708233,153.664096 41.8662846,151.566657 43.3580599,150.050271 C44.0958576,149.286025 44.7568013,148.686411 45.1985092,148.249008 C45.4999924,147.963861 45.7416102,147.743815 45.9233627,147.588867 C45.8047114,147.79654 45.6326667,148.074154 45.4072285,148.421709 Z" id="Fill-215" fill="#F3F8FF"></path>
                        <path d="M32.0856533,146.105309 C31.6674061,146.704923 31.1019219,147.586187 30.3673601,148.598186 C28.9136074,150.635099 26.8830459,153.274046 24.7667313,155.84359 C22.6423268,158.405063 20.4329785,160.897135 18.7049785,162.708082 C17.8490683,163.620819 17.0886189,164.341484 16.578147,164.864431 C16.2308212,165.207145 15.9527987,165.472385 15.7440796,165.660151 C15.8886189,165.41966 16.096529,165.096853 16.36781,164.69173 C16.7852482,164.092116 17.3499223,163.210046 18.0844841,162.198853 C19.5382369,160.161133 21.5696075,157.523801 23.6875401,154.955064 C25.8119445,152.392783 28.0229111,149.90152 29.750102,148.090573 C30.6060122,147.178643 31.3656535,146.457169 31.8761253,145.933415 C32.2234512,145.591239 32.5012037,145.325999 32.709383,145.137695 C32.5643048,145.377649 32.3563949,145.700187 32.0856533,146.105309 Z" id="Fill-217" fill="#F3F8FF"></path>
                        <path d="M56.4944333,140.730915 C56.5534895,140.11274 56.5996018,139.223408 56.7249951,138.169443 C56.9563659,136.058285 57.382703,133.265196 57.9182535,130.494705 C58.4635119,127.724214 59.1179839,124.97632 59.6980288,122.932144 C59.9779389,121.908039 60.2716017,121.067127 60.4495792,120.472355 C60.5763208,120.077454 60.6828376,119.768635 60.7691298,119.545898 C60.7642759,119.784238 60.7467478,120.110273 60.7165456,120.524004 C60.6566804,121.142179 60.6129953,122.031512 60.486793,123.085477 C60.2562312,125.197442 59.828276,127.989723 59.2911074,130.761022 C58.745849,133.529899 58.0897592,136.2786 57.5097142,138.321968 C57.2298041,139.346073 56.9377591,140.187792 56.7605906,140.782564 C56.6327704,141.176927 56.5262535,141.485746 56.44104,141.709021 C56.445894,141.470143 56.4636917,141.144108 56.4944333,140.730915 Z" id="Fill-231" fill="#F3F8FF"></path>
                        <path d="M46.2588496,131.913153 C46.3413665,131.188451 46.4206473,130.144978 46.5856811,128.906206 C46.8963327,126.425434 47.4286473,123.140873 48.0701754,119.878101 C48.7206024,116.616943 49.480243,113.376768 50.1395688,110.965399 C50.4591194,109.757294 50.7859507,108.763048 50.9865799,108.060136 C51.1289619,107.594218 51.2476136,107.229446 51.342535,106.96582 C51.3290519,107.245586 51.2993889,107.628113 51.2535462,108.113399 C51.1710294,108.838101 51.0933665,109.882382 50.9283328,111.120347 C50.6176811,113.601926 50.0845575,116.88568 49.4422204,120.148452 C48.7901755,123.40961 48.028917,126.648978 47.3704002,129.061153 C47.0508496,130.268452 46.7256361,131.263505 46.5250069,131.966417 C46.3820856,132.432335 46.2637035,132.797107 46.1698608,133.060732 C46.183344,132.780966 46.2130069,132.398439 46.2588496,131.913153 Z" id="Fill-233" fill="#F3F8FF"></path>
                        <path d="M35.9508997,123.435186 C36.0107649,122.817818 36.0560683,121.928486 36.1822705,120.874521 C36.4136413,118.762556 36.8399784,115.970275 37.3755289,113.198977 C37.9207873,110.429292 38.5752593,107.681398 39.1553042,105.637222 C39.4352143,104.613117 39.7288774,103.772205 39.9060459,103.177433 C40.0333268,102.782532 40.1398437,102.473713 40.2255964,102.250977 C40.2212817,102.489316 40.2040232,102.815351 40.173821,103.229082 C40.1139558,103.847257 40.0702707,104.736591 39.9440684,105.790555 C39.7126976,107.90252 39.2855514,110.694802 38.7483828,113.4661 C38.2031244,116.234977 37.5470346,118.983678 36.9669896,121.027046 C36.6870795,122.050344 36.3942256,122.89287 36.217866,123.487642 C36.0900458,123.882005 35.9835289,124.190824 35.8983154,124.414099 C35.9031694,124.175221 35.9206975,123.848917 35.9508997,123.435186 Z" id="Fill-235" fill="#F3F8FF"></path>
                        <path d="M58.6012745,144.721807 C58.0430722,144.996193 57.2607798,145.425526 56.2956562,145.872614 C54.3734989,146.786158 51.7685556,147.893386 49.1231623,148.895701 C46.475342,149.888333 43.7878814,150.778474 41.7395217,151.36114 C40.7193869,151.662158 39.847297,151.855035 39.2470273,152.016438 C38.8436116,152.115971 38.5243307,152.188064 38.2891846,152.232719 C38.495207,152.111128 38.782398,151.954567 39.1507576,151.763035 C39.7089599,151.488649 40.4904431,151.057702 41.4555666,150.610614 C43.3777239,149.696263 45.9834766,148.591456 48.62887,147.589947 C51.2774992,146.597316 53.9657683,145.709596 56.013319,145.126123 C57.0334538,144.825912 57.9055442,144.631421 58.5050049,144.46921 C58.9084206,144.369678 59.2277012,144.297585 59.4628468,144.25293 C59.2568248,144.37452 58.9696341,144.530813 58.6012745,144.721807 Z" id="Fill-243" fill="#F3F8FF"></path>
                        <path d="M223.434189,143.911273 L223.434189,137.539062 L51.579895,137.539062 L51.579895,143.911273 L223.434189,143.911273 Z" id="Fill-255" fill="#279D8A"></path>
                        <path d="M240.885132,137.862 C242.802435,137.862 244.356506,136.311725 244.356506,134.399094 L244.356506,3.46291232 C244.356506,1.55028069 242.802435,0 240.885132,0 L34.1294518,0 C32.2121484,0 30.6580811,1.55028069 30.6580811,3.46291232 L30.6580811,134.399094 C30.6580811,136.311725 32.2121484,137.862 34.1294518,137.862 L240.885132,137.862 Z" id="Fill-257" fill="#FFFFFF"></path>
                        <path d="M237.381149,124.951141 L237.381149,6.86914062 L37.633728,6.86914062 L37.633728,124.951141 L237.381149,124.951141 Z" id="Fill-258" fill="#4B5352"></path>
                        <path d="M137.50705,143.911133 L30.658247,143.911133 L0,168.089378 L137.50705,168.089378 L275.014099,168.089378 L244.356674,143.911133 L137.50705,143.911133 Z" id="Fill-259" fill="#2ADABF"></path>
                        <path d="M156.208679,154.149343 L164.738663,154.149343 L177.664673,164.34359 L263.756454,164.34359 L242.595734,147.655273 L137.507286,147.655273 L32.4188366,147.655273 L11.2581177,164.34359 L97.3490829,164.34359 L110.275917,154.149343 L156.208679,154.149343 Z" id="Fill-260" fill="#FFFFFF"></path>
                        <path d="M157.093548,157.799805 L111.625953,157.799805 L98.5802002,168.088471 L157.093548,168.088471 L176.434853,168.088471 L163.389099,157.799805 L157.093548,157.799805 Z" id="Fill-261" fill="#279D8A"></path>
                        <path d="M7.67089272,175.741007 C3.43421841,175.741007 6.10351562e-05,172.315218 6.10351562e-05,168.088867 L275.01416,168.088867 C275.01416,172.315218 271.580028,175.741007 267.343353,175.741007 L7.67089272,175.741007 Z" id="Fill-262" fill="#279D8A"></path>
                        <path d="M120.215635,164.669922 L115.879456,168.088448 L135.956938,168.088448 L135.956938,164.669922 L120.215635,164.669922 Z" id="Fill-263" fill="#2ADABF"></path>
                        <path d="M159.134474,168.088448 L154.799912,164.669922 L139.0578,164.669922 L139.0578,168.088448 L159.134474,168.088448 Z" id="Fill-264" fill="#2ADABF"></path>
                        <path d="M30.6583252,154.657229 L98.7185516,154.657229 L102.736794,151.482422 L34.6765723,151.482422 L30.6583252,154.657229 Z" id="Fill-265" fill="#2ADABF"></path>
                        <path d="M24.4127197,159.848466 L92.4729462,159.848466 L96.491188,156.672852 L28.4309669,156.672852 L24.4127197,159.848466 Z" id="Fill-266" fill="#2ADABF"></path>
                        <path d="M244.356873,154.657229 L176.296644,154.657229 L172.277588,151.482422 L240.338623,151.482422 L244.356873,154.657229 Z" id="Fill-267" fill="#2ADABF"></path>
                        <path d="M250.602051,159.848466 L182.541822,159.848466 L178.522766,156.672852 L246.583801,156.672852 L250.602051,159.848466 Z" id="Fill-268" fill="#2ADABF"></path>
                        <path d="M58.1066072,85.1481462 C56.5428319,85.1481462 55.2751465,83.8835497 55.2751465,82.3235848 C55.2751465,80.7636199 56.5428319,79.4990234 58.1066072,79.4990234 L118.200718,79.4990234 C119.764493,79.4990234 121.032181,80.7636199 121.032181,82.3235848 C121.032181,83.8835497 119.764493,85.1481462 118.200718,85.1481462 L58.1066072,85.1481462 Z" id="Fill-269" fill="#2ADABF"></path>
                        <path d="M113.23999,79.4990234 C114.803766,79.4990234 116.071451,80.7636199 116.071451,82.3235848 C116.071451,83.8835497 114.803766,85.1481462 113.23999,85.1481462 L118.200709,85.1481462 C119.764485,85.1481462 121.03217,83.8835497 121.03217,82.3235848 C121.03217,80.7636199 119.764485,79.4990234 118.200709,79.4990234 L113.23999,79.4990234 Z" id="Fill-270" fill="#D4E1FF"></path>
                        <path d="M58.1066072,93.621779 C56.5428319,93.621779 55.2751465,92.3571825 55.2751465,90.7972176 C55.2751465,89.2372527 56.5428319,87.9726562 58.1066072,87.9726562 L118.200718,87.9726562 C119.764493,87.9726562 121.032181,89.2372527 121.032181,90.7972176 C121.032181,92.3571825 119.764493,93.621779 118.200718,93.621779 L58.1066072,93.621779 Z" id="Fill-271" fill="#2ADABF"></path>
                        <path d="M109.200684,87.9726562 C110.764459,87.9726562 112.032144,89.2372527 112.032144,90.7972176 C112.032144,92.3571825 110.764459,93.621779 109.200684,93.621779 L118.200684,93.621779 C119.764459,93.621779 121.032145,92.3571825 121.032145,90.7972176 C121.032145,89.2372527 119.764459,87.9726562 118.200684,87.9726562 L109.200684,87.9726562 Z" id="Fill-272" fill="#D4E1FF"></path>
                        <path d="M58.1066072,102.094435 C56.5428319,102.094435 55.2751465,100.830646 55.2751465,99.2698739 C55.2751465,97.709909 56.5428319,96.4453125 58.1066072,96.4453125 L118.200718,96.4453125 C119.764493,96.4453125 121.032181,97.709909 121.032181,99.2698739 C121.032181,100.830646 119.764493,102.094435 118.200718,102.094435 L58.1066072,102.094435 Z" id="Fill-273" fill="#2ADABF"></path>
                        <path d="M85.8411255,96.4453125 C87.4049008,96.4453125 88.6725862,97.709909 88.6725862,99.2698739 C88.6725862,100.830646 87.4049008,102.094435 85.8411255,102.094435 L118.200676,102.094435 C119.764451,102.094435 121.032135,100.830646 121.032135,99.2698739 C121.032135,97.709909 119.764451,96.4453125 118.200676,96.4453125 L85.8411255,96.4453125 Z" id="Fill-274" fill="#D4E1FF"></path>
                        <path d="M58.1066072,110.568068 C56.5428319,110.568068 55.2751465,109.304279 55.2751465,107.743507 C55.2751465,106.183542 56.5428319,104.918945 58.1066072,104.918945 L118.200718,104.918945 C119.764493,104.918945 121.032181,106.183542 121.032181,107.743507 C121.032181,109.304279 119.764493,110.568068 118.200718,110.568068 L58.1066072,110.568068 Z" id="Fill-275" fill="#2ADABF"></path>
                        <path d="M101.818665,104.918945 C103.38244,104.918945 104.650125,106.183542 104.650125,107.743507 C104.650125,109.304279 103.38244,110.568068 101.818665,110.568068 L118.200687,110.568068 C119.764463,110.568068 121.032148,109.304279 121.032148,107.743507 C121.032148,106.183542 119.764463,104.918945 118.200687,104.918945 L101.818665,104.918945 Z" id="Fill-276" fill="#D4E1FF"></path>
                        <line x1="63.5646973" y1="21.8029228" x2="156.105728" y2="21.8029228" id="Stroke-277" stroke="#8CB0EA" stroke-width="0.5" stroke-dasharray="1.617977499961853,1.617977499961853"></line>
                        <line x1="63.5646973" y1="31.1378838" x2="156.105728" y2="31.1378838" id="Stroke-278" stroke="#8CB0EA" stroke-width="0.5" stroke-dasharray="1.617977499961853,1.617977499961853"></line>
                        <line x1="63.5646973" y1="40.4738213" x2="156.105728" y2="40.4738213" id="Stroke-279" stroke="#8CB0EA" stroke-width="0.5" stroke-dasharray="1.617977499961853,1.617977499961853"></line>
                        <line x1="63.5646973" y1="49.8097588" x2="156.105728" y2="49.8097588" id="Stroke-280" stroke="#8CB0EA" stroke-width="0.5" stroke-dasharray="1.617977499961853,1.617977499961853"></line>
                        <line x1="63.5646973" y1="59.1456963" x2="156.105728" y2="59.1456963" id="Stroke-281" stroke="#8CB0EA" stroke-width="0.5" stroke-dasharray="1.617977499961853,1.617977499961853"></line>
                        <path d="M66.6562277,70.3135962 L66.6562277,67.7529297 L66.2404075,67.7529297 L66.2404075,70.3135962 L66.6562277,70.3135962 Z" id="Fill-282" fill="#279D8A"></path>
                        <path d="M57.2776266,70.313858 L57.2776266,17.1572266 L56.8618064,17.1572266 L56.8618064,70.313858 L57.2776266,70.313858 Z" id="Fill-283" fill="#279D8A"></path>
                        <path d="M76.5954367,70.3135962 L76.5954367,67.7529297 L76.1796165,67.7529297 L76.1796165,70.3135962 L76.5954367,70.3135962 Z" id="Fill-284" fill="#279D8A"></path>
                        <path d="M86.5339133,70.3135962 L86.5339133,67.7529297 L86.1180931,67.7529297 L86.1180931,70.3135962 L86.5339133,70.3135962 Z" id="Fill-285" fill="#279D8A"></path>
                        <path d="M96.4731222,70.3135962 L96.4731222,67.7529297 L96.057302,67.7529297 L96.057302,70.3135962 L96.4731222,70.3135962 Z" id="Fill-286" fill="#279D8A"></path>
                        <path d="M106.411538,70.3135962 L106.411538,67.7529297 L105.995718,67.7529297 L105.995718,70.3135962 L106.411538,70.3135962 Z" id="Fill-287" fill="#279D8A"></path>
                        <path d="M116.350808,70.3135962 L116.350808,67.7529297 L115.934988,67.7529297 L115.934988,70.3135962 L116.350808,70.3135962 Z" id="Fill-288" fill="#279D8A"></path>
                        <path d="M126.289223,70.3135962 L126.289223,67.7529297 L125.873403,67.7529297 L125.873403,70.3135962 L126.289223,70.3135962 Z" id="Fill-289" fill="#279D8A"></path>
                        <path d="M136.227639,70.3135962 L136.227639,67.7529297 L135.811819,67.7529297 L135.811819,70.3135962 L136.227639,70.3135962 Z" id="Fill-290" fill="#279D8A"></path>
                        <path d="M146.166848,70.3135962 L146.166848,67.7529297 L145.751028,67.7529297 L145.751028,70.3135962 L146.166848,70.3135962 Z" id="Fill-291" fill="#279D8A"></path>
                        <path d="M156.106095,70.3135962 L156.106095,67.7529297 L155.689466,67.7529297 L155.689466,70.3135962 L156.106095,70.3135962 Z" id="Fill-292" fill="#279D8A"></path>
                        <path d="M57.8414574,59.3530998 L57.8414574,58.9382928 L55.2745361,58.9382928 L55.2745361,59.3530998 L57.8414574,59.3530998 Z" id="Fill-293" fill="#5D7EE8"></path>
                        <path d="M57.8414574,50.0171623 L57.8414574,49.6023553 L55.2745361,49.6023553 L55.2745361,50.0171623 L57.8414574,50.0171623 Z" id="Fill-294" fill="#5D7EE8"></path>
                        <path d="M57.8414574,40.6812248 L57.8414574,40.2664178 L55.2745361,40.2664178 L55.2745361,40.6812248 L57.8414574,40.6812248 Z" id="Fill-295" fill="#5D7EE8"></path>
                        <path d="M57.8414574,31.3452873 L57.8414574,30.9304803 L55.2745361,30.9304803 L55.2745361,31.3452873 L57.8414574,31.3452873 Z" id="Fill-296" fill="#5D7EE8"></path>
                        <path d="M57.8414574,22.0103263 L57.8414574,21.5955193 L55.2745361,21.5955193 L55.2745361,22.0103263 L57.8414574,22.0103263 Z" id="Fill-297" fill="#5D7EE8"></path>
                        <path d="M157.810623,68.6890373 L157.810623,68.2742303 L55.2745361,68.2742303 L55.2745361,68.6890373 L157.810623,68.6890373 Z" id="Fill-298" fill="#279D8A"></path>
                        <path d="M147.547417,25.3652344 C147.547417,25.3652344 142.314881,41.244112 128.994072,34.9090242 C115.673263,28.5731297 112.818339,35.9387779 110.583912,45.0613041 C102.36944,78.5985317 101.621126,44.3123927 96.8327217,44.6456909 C92.0443172,44.9789892 90.4886317,62.8616911 85.938879,63.3967438 C81.3883171,63.9317964 79.0770364,41.9195853 74.0127668,41.9744625 C70.6360477,42.0110473 67.5955982,47.0070241 64.8914185,56.9623928" id="Stroke-299" stroke="#89FFED" stroke-width="1.6179775" stroke-dasharray="0,0"></path>
                        <path d="M149.125107,34.7011719 C149.125107,34.7011719 144.003398,46.2140841 138.49823,39.4811368 C132.628208,32.3019085 131.281241,54.8265759 126.117466,56.2267513 C120.910005,57.639032 123.178409,32.4043999 115.751083,44.3813477 C108.020387,56.8449268 104.384793,42.4259441 98.7348156,38.9614177 C93.0856471,35.4976983 90.0616466,41.0241542 88.8060961,44.0367508 C87.7786803,46.5029964 86.8119385,49.4001894 83.8461857,45.3578386 C81.0406127,41.5333824 79.4056463,38.3133821 73.6416016,51.9390659" id="Stroke-300" stroke="#2ADABF" stroke-width="1.6179775" stroke-dasharray="0,0"></path>
                        <path d="M198.290213,24.7919922 C209.264145,24.7919922 218.161404,33.6667652 218.161404,44.615572 C218.161404,55.5635719 209.264145,64.438343 198.290213,64.438343 C187.315471,64.438343 178.418213,55.5635719 178.418213,44.615572 C178.418213,33.6667652 187.315471,24.7919922 198.290213,24.7919922 Z M198.290242,30.0292969 C190.214916,30.0292969 183.668579,36.5596828 183.668579,44.6153316 C183.668579,52.6701736 190.214916,59.2005596 198.290242,59.2005596 C206.364759,59.2005596 212.911097,52.6701736 212.911097,44.6153316 C212.911097,36.5596828 206.364759,30.0292969 198.290242,30.0292969 Z" id="Fill-301" fill="#2ADABF"></path>
                        <path d="M212.882884,45.4855366 L218.139692,45.4855366 C218.152636,45.1966243 218.161535,44.9069053 218.161535,44.615572 C218.161535,33.667572 209.264277,24.7919922 198.290344,24.7919922 L198.290344,30.0295362 C206.364861,30.0295362 212.911199,36.5599232 212.911199,44.615572 C212.911199,44.9077123 212.899873,45.1974313 212.882884,45.4855366 Z" id="Fill-302" fill="#EFA748"></path>
                    </g>
                    <g id="Group-21">
                        <path d="M209.180969,77.4948235 L213.659531,73.0263672 L221.431486,73.0263672 L221.431486,73.660683 L213.92407,73.660683 L209.631576,77.9435253 L209.180969,77.4948235 Z" id="Fill-304" fill="#FFFFFF"></path>
                        <path d="M198.175146,104.45313 C195.117169,104.45313 192.283281,103.51134 189.937214,101.90941 L186.71582,106.053446 C189.955011,108.340533 193.904494,109.691481 198.175146,109.691481 C208.857034,109.691481 217.568225,101.281551 218.024494,90.7378666 L212.78063,90.4755859 C212.46108,98.2487788 206.045798,104.45313 198.175146,104.45313 Z" id="Fill-306" fill="#62C1C5"></path>
                        <path d="M202.087439,114.83621 L195.196472,107.960421 L195.645461,107.511719 L202.351169,114.201894 L217.736517,114.201894 L217.736517,114.83621 L202.087439,114.83621 Z" id="Fill-308" fill="#FFFFFF"></path>
                        <path d="M182.760345,73.5706697 L174.442322,73.5706697 L174.442322,72.9355469 L183.024075,72.9355469 L187.594052,77.4943891 L187.143445,77.9430909 L182.760345,73.5706697 Z" id="Fill-310" fill="#FFFFFF"></path>
                        <path d="M0,95.0620117 L51.3926277,43.7946053 L73.6244507,65.9722557 L119.651054,20.0577984 L165.251328,65.5461502 L224.880264,6.0625" id="Stroke-323" stroke="#EFA748" stroke-width="4.85393238" stroke-linecap="round" stroke-dasharray="0,0"></path>
                        <path d="M165.250942,71.3993187 C162.010942,71.3993187 159.384155,68.7789326 159.384155,65.5468273 C159.384155,62.3147221 162.010942,59.6943359 165.250942,59.6943359 C168.490942,59.6943359 171.117728,62.3147221 171.117728,65.5468273 C171.117728,68.7789326 168.490942,71.3993187 165.250942,71.3993187 Z" id="Fill-324" fill="#EFA748"></path>
                        <path d="M165.2512,68.462368 C163.636458,68.462368 162.327515,67.1574208 162.327515,65.5466137 C162.327515,63.9358066 163.636458,62.6308594 165.2512,62.6308594 C166.865133,62.6308594 168.174077,63.9358066 168.174077,65.5466137 C168.174077,67.1574208 166.865133,68.462368 165.2512,68.462368 Z" id="Fill-325" fill="#F3F8FF"></path>
                        <path d="M119.650905,25.9100609 C116.410905,25.9100609 113.784119,23.2896748 113.784119,20.0575695 C113.784119,16.8254642 116.410905,14.2050781 119.650905,14.2050781 C122.890905,14.2050781 125.517692,16.8254642 125.517692,20.0575695 C125.517692,23.2896748 122.890905,25.9100609 119.650905,25.9100609 Z" id="Fill-326" fill="#EFA748"></path>
                        <path d="M119.651163,22.9731102 C118.036422,22.9731102 116.727478,21.6681629 116.727478,20.0573559 C116.727478,18.4465488 118.036422,17.1416016 119.651163,17.1416016 C121.265096,17.1416016 122.57404,18.4465488 122.57404,20.0573559 C122.57404,21.6681629 121.265096,22.9731102 119.651163,22.9731102 Z" id="Fill-327" fill="#F3F8FF"></path>
                        <path d="M73.5851092,71.8250999 C70.3451092,71.8250999 67.7183228,69.2047138 67.7183228,65.9726086 C67.7183228,62.7405033 70.3451092,60.1201172 73.5851092,60.1201172 C76.8251092,60.1201172 79.4518957,62.7405033 79.4518957,65.9726086 C79.4518957,69.2047138 76.8251092,71.8250999 73.5851092,71.8250999 Z" id="Fill-328" fill="#EFA748"></path>
                        <path d="M73.5845585,68.8881493 C71.9706259,68.8881493 70.6616821,67.583202 70.6616821,65.9723949 C70.6616821,64.3615879 71.9706259,63.0566406 73.5845585,63.0566406 C75.1993001,63.0566406 76.508244,64.3615879 76.508244,65.9723949 C76.508244,67.583202 75.1993001,68.8881493 73.5845585,68.8881493 Z" id="Fill-329" fill="#F3F8FF"></path>
                        <path d="M51.4212909,49.6747093 C48.1812909,49.6747093 45.5545044,47.0543232 45.5545044,43.8222179 C45.5545044,40.5901127 48.1812909,37.9697266 51.4212909,37.9697266 C54.6612909,37.9697266 57.2880774,40.5901127 57.2880774,43.8222179 C57.2880774,47.0543232 54.6612909,49.6747093 51.4212909,49.6747093 Z" id="Fill-330" fill="#EFA748"></path>
                        <path d="M51.4211829,46.7377586 C49.8064413,46.7377586 48.4974976,45.4328114 48.4974976,43.8220043 C48.4974976,42.2111973 49.8064413,40.90625 51.4211829,40.90625 C53.0351155,40.90625 54.3440595,42.2111973 54.3440595,43.8220043 C54.3440595,45.4328114 53.0351155,46.7377586 51.4211829,46.7377586 Z" id="Fill-331" fill="#F3F8FF"></path>
                        <path d="M201.392334,7.90231562 L216.174986,3.95115781 L230.958447,0 L226.996828,14.7466316 L223.03602,29.4932632 L212.214177,18.6977901 L201.392334,7.90231562 Z" id="Fill-332" fill="#EFA748"></path>
                        <path d="M137.343903,165.470384 C136.634689,165.517729 136.660038,165.843495 137.419948,166.447682 C136.386599,166.103893 135.513701,166.015121 134.801251,166.181366 C133.731768,166.429928 133.447004,169.503858 138.979678,168.65084 L140.129251,168.456349 L140.396217,166.233823 L139.237745,166.198314 C138.683858,165.665144 138.052577,165.422501 137.343903,165.470384 Z" id="Fill-333" fill="#FFA9A8"></path>
                        <path d="M156.529133,222.313374 C156.309627,223.469561 155.863065,224.16521 155.189447,224.400321 C154.17902,224.751374 152.330481,225.430883 152.377402,226.438848 C152.413807,227.21197 154.222706,227.015865 155.394121,226.942426 C155.86711,226.773491 156.210121,226.551292 156.423155,226.27583 L158.214256,225.595514 L158.693178,226.66804 C159.337133,226.527619 159.848413,226.368637 159.828998,226.241128 C159.797717,226.038298 159.606795,224.628169 159.256234,222.010742 L156.529133,222.313374 Z" id="Fill-334" fill="#0A3C5F"></path>
                        <path d="M156.528896,222.313545 L159.255998,222.010914 C158.423278,205.902843 158.875773,192.812212 160.613481,182.739018 C162.667503,170.829054 158.103997,168.269193 156.16566,176.374071 C153.639458,187.759475 153.760537,203.072633 156.528896,222.313545 Z" id="Fill-335" fill="#FED4D5"></path>
                        <path d="M163.982287,222.313374 C163.762782,223.469561 163.31622,224.16521 162.642602,224.400321 C161.632175,224.751374 159.782827,225.430883 159.830557,226.438848 C159.866962,227.21197 161.675861,227.015865 162.847276,226.942426 C163.320265,226.773491 163.663276,226.551292 163.87631,226.27583 L165.667411,225.595514 L166.146332,226.66804 C166.790287,226.527619 167.301568,226.368637 167.282153,226.241128 C167.250872,226.038298 167.05995,224.628169 166.709389,222.010742 L163.982287,222.313374 Z" id="Fill-336" fill="#0A3C5F"></path>
                        <path d="M163.982021,222.313496 L166.709123,222.010864 C165.876403,205.902795 166.328898,192.812164 168.066606,182.738971 C167.282695,182.454094 162.960269,179.962023 163.618785,176.374023 C161.092583,187.759427 161.213662,203.072585 163.982021,222.313496 Z" id="Fill-337" fill="#FED4D5"></path>
                        <path d="M166.169229,184.635632 L166.169229,176.375 L155.650757,176.375 L155.650757,184.635632 L166.169229,184.635632 Z" id="Fill-338" fill="#FED4D5"></path>
                        <path d="M150.24855,167.284101 C147.697,169.60347 144.365584,169.053084 139.394348,168.944943 L139.662123,165.816136 C141.077314,165.786546 142.780775,165.655271 144.772505,165.422312 C147.748505,165.074756 149.720011,163.136031 150.687022,159.606136 C151.562348,157.384148 152.396146,155.842744 153.188416,154.981926 C156.060326,151.857961 159.241269,154.564698 157.452595,157.45382 C155.04073,161.833236 152.639382,165.109996 150.24855,167.284101 Z" id="Fill-339" fill="#FFEB75"></path>
                        <path d="M167.420715,176.387751 C166.16921,167.981856 167.81712,164.092838 168.227278,161.846101 C168.711592,159.193165 168.814873,157.168358 168.53712,155.77168 C168.562199,154.232698 166.583413,153.587891 165.04148,153.587891 L155.486513,153.587891 C155.899907,156.896662 152.974603,161.612067 154.899188,164.254242 C156.341884,166.235201 156.341884,170.275131 154.899188,176.374031 C164.294243,176.383177 168.468086,176.387751 167.420715,176.387751 Z" id="Fill-340" fill="#FFEB75"></path>
                        <path d="M160.221578,155.48405 C159.489443,155.48405 158.894836,154.891699 158.894836,154.160541 L158.894836,151.805664 L161.54832,151.805664 L161.54832,154.160541 C161.54832,154.891699 160.953713,155.48405 160.221578,155.48405 L160.221578,155.48405 Z" id="Fill-341" fill="#FED4D5"></path>
                        <path d="M154.237091,152.1995 C154.166439,149.639641 153.917271,147.162904 153.489585,144.76929 C152.848057,141.178869 154.654529,137.925781 158.895248,137.925781 C161.722395,137.925781 163.722215,139.199793 164.894709,141.747816 C166.791518,141.937196 167.818125,142.790483 167.974529,144.307676 C168.209136,146.582658 165.643023,150.031044 165.892192,152.732939 C164.430619,152.732939 162.948551,152.638249 161.44599,152.448869 C159.988192,152.264869 158.574889,152.228015 157.20608,152.338307 C155.985046,152.426541 154.995383,152.380272 154.237091,152.1995 Z" id="Fill-342" fill="#282828"></path>
                        <path d="M164.016488,147.011928 C164.010825,147.033718 164.002736,147.053086 163.998691,147.074876 C161.907724,144.518782 158.874556,143.34242 154.899185,143.545788 C154.864668,146.009344 155.1435,148.213309 155.735679,150.157683 C156.510691,152.700595 159.386646,154.108034 161.750511,152.879753 C162.675994,152.397964 163.500354,151.52477 163.887859,149.989016 C165.312758,149.336946 166.07078,148.395156 166.161926,147.163648 C166.237162,146.150841 165.683006,145.832069 165.114286,145.945051 C164.315006,146.185542 164.072308,146.81663 164.016488,147.011928 Z" id="Fill-343" fill="#FED4D5"></path>
                        <path d="M168.655869,197.772902 C170.848768,187.909532 170.436993,180.781146 167.420544,176.387743 L154.899015,176.374023 C152.164633,181.245182 151.785757,188.378141 153.762386,197.772902 L168.655869,197.772902 Z" id="Fill-344" fill="#2C4199"></path>
                        <path d="M169.203913,173.710409 L166.450114,160.501953 L156.287598,162.61069 L159.041395,175.819146 L169.203913,173.710409 Z" id="Fill-345" fill="#FFFFFF"></path>
                        <path d="M159.256553,222.010742 L159.000103,222.010742 L156.528643,222.313374 C156.309137,223.470099 155.862575,224.165748 155.188957,224.400321 C154.822485,224.527023 154.345991,224.699725 153.889721,224.913584 C153.885676,224.928111 153.565317,226.178988 155.496373,225.560812 C157.438755,224.938602 158.253407,224.231655 158.668418,223.72969 C158.918126,223.427327 159.114171,222.854345 159.256553,222.010742 Z" id="Fill-346" fill="#FED4D5"></path>
                        <path d="M166.709678,222.010742 L166.453228,222.010742 L163.981768,222.313374 C163.762262,223.470099 163.3157,224.165748 162.642082,224.400321 C162.27561,224.527023 161.799116,224.699725 161.342846,224.913584 C161.338801,224.928111 161.018442,226.178988 162.949498,225.560812 C164.89188,224.938602 165.706532,224.231655 166.121543,223.72969 C166.370711,223.427327 166.566756,222.854345 166.709678,222.010742 Z" id="Fill-347" fill="#FED4D5"></path>
                        <path d="M130.277309,158.510157 C129.902747,165.122859 130.464185,172.081771 133.680725,177.210367 L130.039466,178.525806 C128.309309,175.349385 126.951556,171.39715 125.966208,166.669104 C125.283421,163.389922 125.910118,158.472226 127.846298,151.916016 C129.71614,151.90418 130.526477,154.102227 130.277309,158.510157 Z" id="Fill-348" fill="#F59E6E"></path>
                        <path d="M134.179616,178.950827 C133.890807,178.465809 133.618178,177.918652 133.361729,177.322266 L130.184021,178.41416 L130.755976,179.306722 L134.179616,178.950827 Z" id="Fill-349" fill="#EF9D75"></path>
                        <path d="M135.061334,178.50687 C135.186458,178.986776 135.124166,179.60011 134.874458,180.34687 L133.618099,180.160449 L133.698188,179.533396 L133.405334,178.09287 C134.38475,177.888963 134.93675,178.026963 135.061334,178.50687 Z" id="Fill-350" fill="#EF9D75"></path>
                        <path d="M129.260812,182.401172 L129.260812,180.703207 C129.260812,180.273874 129.610295,179.925242 130.040677,179.925242 L134.732812,179.925242 C135.163194,179.925242 135.512677,180.273874 135.512677,180.703207 L135.512677,182.401172 L136.489127,182.401172 L136.489127,180.703207 C136.489127,179.7364 135.701172,178.951172 134.732812,178.951172 L130.040677,178.951172 C129.072318,178.951172 128.284363,179.7364 128.284363,180.703207 L128.284363,182.401172 L129.260812,182.401172 Z" id="Fill-351" fill="#EAA707"></path>
                        <path d="M122.373718,184.887695 L122.373718,195.177169 L132.571022,195.177169 L142.091202,195.177169 L142.091202,184.887695 L132.571022,184.887695 L122.373718,184.887695 Z" id="Fill-352" fill="#0A3C5F"></path>
                        <path d="M142.091263,188.762292 L142.091263,182.248047 L122.373779,182.248047 L122.373779,188.762292 L142.091263,188.762292 Z" id="Fill-353" fill="#0E4F77"></path>
                        <path d="M133.325048,189.072036 L133.325048,187.476562 L131.13916,187.476562 L131.13916,189.072036 L133.325048,189.072036 Z" id="Fill-354" fill="#EAA707"></path>
                        <path d="M126.942728,224.400395 C127.953155,224.751448 129.801694,225.430957 129.754773,226.438922 C129.707852,227.446887 126.449245,227.025623 125.838458,227.025623 C125.226863,227.025623 122.255447,226.546255 122.302368,226.241202 C122.334189,226.038372 122.368436,224.598922 122.40511,221.922852 L125.603043,222.313448 C125.822548,223.469635 126.26911,224.165284 126.942728,224.400395 Z" id="Fill-355" fill="#0A3C5F"></path>
                        <path d="M126.060829,222.464462 L121.999705,222.464462 C122.682492,205.1152 122.449773,192.453364 121.301548,184.478955 C119.579211,172.516534 126.639256,169.249727 127.914222,178.148709 C129.751705,189.698206 129.133907,204.470124 126.060829,222.464462 Z" id="Fill-356" fill="#0A3C5F"></path>
                        <path d="M127.914539,186.397181 L127.914539,178.135742 L114.696472,178.135742 L114.696472,186.397181 L127.914539,186.397181 Z" id="Fill-357" fill="#0A3C5F"></path>
                        <path d="M117.665369,224.400395 C118.675796,224.751448 120.524335,225.430957 120.477414,226.438922 C120.430492,227.446887 117.171886,227.025623 116.561099,227.025623 C115.950313,227.025623 112.978897,226.546255 113.025818,226.241202 C113.057099,226.038372 113.091077,224.598922 113.127751,221.922852 L116.325683,222.313448 C116.545189,223.469635 116.991751,224.165284 117.665369,224.400395 Z" id="Fill-358" fill="#0A3C5F"></path>
                        <path d="M116.783412,222.463718 L112.722288,222.463718 C113.659097,208.451743 113.524805,197.462854 112.319412,189.497053 C111.524445,184.249287 111.353479,180.466258 111.806513,178.147966 C113.913929,174.700387 119.738648,171.686176 120.66494,178.147966 C120.909794,189.3413 119.615951,204.113217 116.783412,222.463718 Z" id="Fill-359" fill="#0E4F77"></path>
                        <path d="M111.806427,178.148121 L111.127686,151.916016 L127.846247,151.916016 L127.914202,178.148121 L111.806427,178.148121 Z" id="Fill-360" fill="#F59E6E"></path>
                        <path d="M120.643636,153.813152 C121.37658,153.813152 121.970378,153.220801 121.970378,152.488836 L121.970378,150.134766 L119.316895,150.134766 L119.316895,152.488836 C119.316895,153.220801 119.911501,153.813152 120.643636,153.813152 L120.643636,153.813152 Z" id="Fill-361" fill="#FED4D5"></path>
                        <path d="M119.451957,154.990676 L118.209351,151.905448 L119.316856,151.306641 L120.643598,153.813237 L119.451957,154.990676 Z" id="Fill-362" fill="#FFFFFF"></path>
                        <path d="M121.835256,154.990676 L123.078672,151.905448 L121.970357,151.306641 L120.643616,153.813237 L121.835256,154.990676 Z" id="Fill-363" fill="#FFFFFF"></path>
                        <path d="M125.129547,148.485425 C124.354536,151.029951 121.478581,152.436583 119.115525,151.207496 C118.189233,150.72732 117.365682,149.854127 116.977367,148.316759 C115.552469,147.664689 114.794446,146.722899 114.7033,145.49139 C114.562536,143.58925 116.642446,144.120267 116.866536,145.404232 L118.264469,140.595215 L121.061952,140.537109 L123.306087,141.762162 L125.966042,141.874337 C126.000558,144.337893 125.721727,146.541589 125.129547,148.485425 Z" id="Fill-364" fill="#F8B690"></path>
                        <path d="M114.696391,138.585533 C114.090188,139.891287 114.361469,141.77917 115.510233,144.249182 C116.185469,144.252948 116.637694,144.637896 116.866907,145.404024 C117.914818,144.93165 118.5852,144.033709 118.878054,142.7102 C121.282368,143.555416 123.644885,143.276726 125.965604,141.874129 C127.105469,141.184936 128.589964,137.685708 126.369289,136.806059 C124.148615,135.92641 116.086233,136.718901 114.696391,138.585533 Z" id="Fill-365" fill="#282828"></path>
                        <path d="M134.647434,180.773682 C134.269636,181.125541 131.006985,182.167401 130.632423,181.491927 C130.257861,180.816453 129.565367,179.660804 130.527254,179.447752 C131.489951,179.233892 132.344243,179.013576 133.811749,178.807787 C135.279254,178.60119 135.086715,180.363717 134.647434,180.773682 Z" id="Fill-366" fill="#F8B690"></path>
                        <path d="M135.147041,165.240793 C135.856255,165.288676 135.830906,165.614711 135.070996,166.218898 C136.104345,165.875108 136.977244,165.786067 137.689693,165.951775 C138.759176,166.200336 139.04394,169.274266 133.511266,168.422056 L132.361693,168.227565 L132.094727,166.005038 L133.253199,165.969529 C133.807086,165.43636 134.438367,165.193448 135.147041,165.240793 Z" id="Fill-367" fill="#EF9D75"></path>
                        <path d="M113.431823,166.914118 C115.582925,170.897556 123.934925,170.4771 133.080544,168.65324 L132.777172,165.33317 C126.79443,165.881942 122.687733,166.027474 120.457082,165.769767 C117.699509,165.450188 116.283778,163.149381 116.209891,158.867346 C116.123059,156.66634 115.865262,155.065217 115.436498,154.063977 C113.880812,150.42917 109.48234,150.911767 109.673262,154.998504 C110.223374,159.318738 111.476228,163.290609 113.431823,166.914118 Z" id="Fill-368" fill="#F59E6E"></path>
                        <path d="M166.363507,158.375746 C168.297799,162.700553 171.058878,168.111606 170.096182,168.653114 C169.132676,169.193816 163.193889,168.569184 162.221485,168.799184 C161.24908,169.029184 160.656092,171.231535 163.120271,171.680237 C165.583642,172.127325 170.190833,173.004553 172.932496,172.201571 C175.674159,171.398588 174.651597,167.621746 172.20926,160.812131 C169.766923,154.002517 168.1449,152.766974 165.848181,153.645009 C164.902204,153.916705 165.073979,155.493617 166.363507,158.375746 Z" id="Fill-369" fill="#FFEB75"></path>
                        <path d="M157.896051,169.007854 C158.543242,167.302626 160.671691,167.841714 162.382702,168.488942 C164.090478,169.13617 164.099376,168.666486 164.011197,170.512135 C163.9125,172.601503 161.303511,171.380486 159.298028,171.340135 C158.195376,171.318346 157.247242,170.713889 157.896051,169.007854 Z" id="Fill-370" fill="#FED4D5"></path>
                        <path d="M162.086534,167.570865 C161.36977,167.451964 161.110893,167.637578 161.309905,168.127707 L162.182804,169.548058 L163.264421,169.74497 L163.952871,169.148584 C163.544062,168.234502 162.92195,167.708596 162.086534,167.570865 Z" id="Fill-371" fill="#FED4D5"></path>
                        <path d="M116.866688,145.404669 C117.914597,144.932294 118.584979,144.034353 118.877833,142.710844 C117.071092,142.483265 115.628395,141.982645 114.549744,141.208984 C114.735811,142.259183 115.055901,143.272797 115.510013,144.249826 C116.185249,144.253593 116.637474,144.63854 116.866688,145.404669 Z" id="Fill-372" fill="#282828"></path>
                        <path d="M162.586517,152.29492 L164.288629,151.498394 L165.090337,151.018218 L166.168719,149.179025 L166.907326,147.63278 L167.095011,145.330359 L165.811955,144.325622 L164.047551,144.085938 L163.005573,144.085938 L162,145.330359 C163.964225,146.788908 164.15973,149.110429 162.586517,152.29492 Z" id="Fill-373" fill="#6CBA39"></path>
                        <path d="M262.983943,161.80601 C264.105202,160.550829 264.053966,159.429882 262.830235,158.443168 C263.672662,155.967776 262.964527,154.385215 260.705831,153.695484 C259.945921,152.269753 258.442281,151.644314 256.19491,151.819168 C253.889292,151.998326 252.489202,152.805344 251.99464,154.240221 C248.332078,155.383496 247.512033,158.011952 249.534505,162.125589 C245.624393,165.99228 246.388348,170.679438 251.82637,176.187063 C253.88282,178.269707 257.441831,175.406677 262.503404,167.597975 C263.969831,165.642303 264.13001,163.711648 262.983943,161.80601 Z" id="Fill-374" fill="#703518"></path>
                        <path d="M262.390124,183.633413 C264.648012,187.62008 271.244506,185.376571 277.674349,181.557764 L276.536911,178.39022 C274.136911,179.595366 271.874438,180.420407 269.749495,180.865343 C266.978978,181.445858 265.571338,179.417823 265.526574,174.781238 C265.47318,172.523741 265.235338,170.88415 264.813046,169.862466 C263.279203,166.155834 258.915517,167.349413 258.900146,170.914009 C259.722079,176.735834 260.885405,180.975636 262.390124,183.633413 Z" id="Fill-375" fill="#FED4D5"></path>
                        <path d="M248.803619,191.754919 C252.399574,182.704217 250.841462,177.534463 250.453147,175.408779 C249.99472,172.900031 249.897102,170.984978 250.160293,169.663621 C250.136024,168.208569 252.007215,167.597656 253.46663,167.597656 L262.503844,167.597656 C262.112294,170.72727 264.879844,175.188463 263.059619,177.68699 C261.695125,179.560346 261.695125,184.317446 263.059619,191.958288 C252.564878,191.822709 247.812878,191.754919 248.803619,191.754919 Z" id="Fill-376" fill="#F76B8D"></path>
                        <path d="M244.754648,179.850855 C244.058109,184.376609 245.378378,186.365907 252.638244,187.974293 L253.612266,185.65089 C253.150603,185.503475 251.962468,184.919195 250.047862,183.898048 C247.548086,182.565931 247.775682,179.82799 250.730648,175.684223 C252.087592,173.876504 252.916805,172.441089 253.218288,171.377978 C254.310423,167.51882 250.546199,166.310715 249.103772,169.18289 C246.669255,173.277697 245.219547,176.833685 244.754648,179.850855 Z" id="Fill-377" fill="#FED4D5"></path>
                        <path d="M257.765763,187.449372 C257.77628,185.724775 256.335471,185.707828 254.605853,185.697337 C252.877853,185.687652 253.01619,185.265582 252.477403,186.928038 C251.771965,189.106179 256.104909,188.26688 256.613763,189.985021 C257.103201,191.640214 257.754437,189.173968 257.765763,187.449372 Z" id="Fill-378" fill="#FED4D5"></path>
                        <path d="M264.171078,200.159097 C272.394449,197.859904 276.788067,197.193308 278.211887,218.878675 L282.12254,218.567974 C283.208742,204.522641 282.055663,196.032009 278.663303,193.096079 C275.270404,190.160688 268.125955,189.991214 257.229954,192.587658 C256.163708,199.227261 258.477416,201.751073 264.171078,200.159097 Z" id="Fill-379" fill="#C33E6B"></path>
                        <path d="M283.437268,220.092693 C284.447695,220.14515 287.275111,219.991009 287.50001,220.919079 C287.724908,221.846342 283.687246,222.606553 283.132279,222.768764 C282.578122,222.930974 281.498931,221.697851 280.982796,221.594553 C280.466661,221.490448 280.297583,221.86329 279.869628,221.826167 C279.441673,221.789044 278.131111,221.108728 278.093088,220.819816 C278.067201,220.62667 278.24383,219.912728 278.622976,218.677992 L281.666392,218.553711 C282.172818,219.545267 282.76311,220.058261 283.437268,220.092693 Z" id="Fill-380" fill="#3459B7"></path>
                        <path d="M252.669296,199.556708 L249.503723,191.743164 L267.595947,191.743164 L267.595947,199.556708 L252.669296,199.556708 Z" id="Fill-381" fill="#0A3C5F"></path>
                        <path d="M253.443905,200.206506 C261.866287,201.620401 266.280939,201.647839 261.550781,222.861101 L265.391859,223.65682 C270.245792,210.134435 271.462242,201.486704 269.041208,197.713628 C266.107815,193.141605 259.361927,191.155266 248.803545,191.754611 C246.305927,196.450915 247.852714,199.268213 253.443905,200.206506 Z" id="Fill-382" fill="#C33E6B"></path>
                        <path d="M266.225687,225.487519 C267.181103,225.82001 269.937328,226.463203 269.893642,227.417098 C269.848339,228.370186 265.758901,227.970712 265.180474,227.970712 C264.603665,227.970712 263.914406,226.4858 263.44762,226.24208 C262.980833,225.997554 262.714676,226.308256 262.313417,226.153308 C261.913777,225.997554 260.846721,224.977484 260.892024,224.689379 C260.921148,224.497846 261.291395,223.862455 262.002766,222.783203 L264.958811,223.514361 C265.166451,224.608139 265.588743,225.265858 266.225687,225.487519 Z" id="Fill-383" fill="#3459B7"></path>
                        <path d="M251.864171,192.588517 C251.531677,192.588517 251.261475,192.318973 251.261475,191.987289 L251.261475,191.929184 C251.261475,191.596692 251.531677,191.327148 251.864171,191.327148 L262.277474,191.327148 C262.610778,191.327148 262.88098,191.596692 262.88098,191.929184 L262.88098,191.987289 C262.88098,192.318973 262.610778,192.588517 262.277474,192.588517 L251.864171,192.588517 Z" id="Fill-384" fill="#E89234"></path>
                        <path d="M262.048691,192.588348 C261.4735,192.588348 261.006714,192.123505 261.006714,191.549716 L261.006714,177.225155 C261.006714,176.651366 261.4735,176.186523 262.048691,176.186523 L284.010309,176.186523 C284.5855,176.186523 285.051477,176.651366 285.051477,177.225155 L285.051477,191.549716 C285.051477,192.123505 284.5855,192.588348 284.010309,192.588348 L262.048691,192.588348 Z" id="Fill-385" fill="#FFFFFF"></path>
                        <path d="M274.070753,176.186523 C273.495562,176.186523 273.028775,176.651366 273.028775,177.225155 L273.028775,191.549716 C273.028775,192.123505 273.495562,192.588348 274.070753,192.588348 L262.048371,192.588348 C261.47318,192.588348 261.007202,192.123505 261.007202,191.549716 L261.007202,177.225155 C261.007202,176.651366 261.47318,176.186523 262.048371,176.186523 L274.070753,176.186523 Z" id="Fill-386" fill="#FFFFFF"></path>
                        <path d="M262.830663,176.186523 C262.255472,176.186523 261.789494,176.651366 261.789494,177.225155 L261.789494,191.549716 C261.789494,192.123505 262.255472,192.588348 262.830663,192.588348 L262.048371,192.588348 C261.47318,192.588348 261.007202,192.123505 261.007202,191.549716 L261.007202,177.225155 C261.007202,176.651366 261.47318,176.186523 262.048371,176.186523 L262.830663,176.186523 Z" id="Fill-387" fill="#E89234"></path>
                        <path d="M257.161968,168.737842 C257.854463,168.737842 258.41671,168.177771 258.41671,167.486157 L258.41671,165.258789 L255.907227,165.258789 L255.907227,167.486157 C255.907227,168.177771 256.469474,168.737842 257.161968,168.737842 L257.161968,168.737842 Z" id="Fill-388" fill="#FED4D5"></path>
                        <path d="M261.404915,163.699122 C260.671162,166.104842 257.952151,167.43642 255.716106,166.273508 C254.839971,165.819157 254.060915,164.993578 253.694443,163.540139 C252.346668,162.92304 251.629634,162.032093 251.543342,160.867298 C251.410668,159.068456 253.37732,159.57042 253.589275,160.784174 L254.911971,156.235824 L257.557364,156.180947 L261.230983,155.517578 L262.196106,157.44635 C262.229005,159.776479 261.965274,161.860737 261.404915,163.699122 Z" id="Fill-389" fill="#FED4D5"></path>
                        <path d="M260.488818,157.057213 C259.177178,159.622991 256.877492,160.865529 253.589762,160.784827 C253.369178,159.846535 253.317672,159.091435 253.435245,158.519529 C253.612414,157.662476 254.194076,156.224371 254.421402,155.997599 C254.648728,155.770827 254.78302,154.938792 256.194706,154.938792 C257.6072,154.938792 259.250256,154.837915 259.578706,154.88795 C259.797672,154.921845 260.29493,154.947131 261.070481,154.963809 C261.340144,154.929915 261.517042,154.938254 261.601177,154.988827 C261.727379,155.064687 261.957133,155.241424 262.196593,155.66995 C262.435245,156.098476 262.562256,156.476967 262.587335,156.804616 C262.604054,157.023049 262.604054,157.325681 262.587335,157.712511 L262.17475,158.520336 C261.537807,158.393365 260.975829,157.905658 260.488818,157.057213 Z" id="Fill-390" fill="#703518"></path>
                        <path d="M28.4547043,226.811522 C27.4984795,227.144013 25.7510638,227.787206 25.7947492,228.741101 C25.8392436,229.694996 28.9214908,229.294715 29.4991088,229.294715 C30.0767268,229.294715 32.8879628,228.841978 32.8426595,228.553873 C32.8135359,228.361802 32.781446,227.000095 32.7463899,224.46875 L29.7215807,224.838364 C29.5139403,225.932142 29.0916481,226.589861 28.4547043,226.811522 Z" id="Fill-391" fill="#0A3C5F"></path>
                        <path d="M29.2890978,224.980038 L33.1301765,224.980038 C32.4840642,208.570682 32.7041091,196.594811 33.7903113,189.052425 C35.4196147,177.738039 28.7414125,174.647162 27.5360192,183.065162 C25.797772,193.988952 26.3821315,207.960577 29.2890978,224.980038 Z" id="Fill-392" fill="#6D6D6D"></path>
                        <path d="M40.0373144,190.867085 L40.0373144,183.052734 L27.5360107,183.052734 L27.5360107,190.867085 L40.0373144,190.867085 Z" id="Fill-393" fill="#6D6D6D"></path>
                        <path d="M37.2295749,226.811522 C36.2733502,227.144013 34.5251255,227.787206 34.5696199,228.741101 C34.6141143,229.694996 37.6963614,229.294715 38.2739794,229.294715 C38.8515974,229.294715 41.6620243,228.841978 41.6175299,228.553873 C41.5878669,228.361802 41.5555075,227.000095 41.5204515,224.46875 L38.4964514,224.838364 C38.2888109,225.932142 37.8665187,226.589861 37.2295749,226.811522 Z" id="Fill-394" fill="#0A3C5F"></path>
                        <path d="M38.0629964,224.980171 L41.9048834,224.980171 C41.0187712,211.726791 41.1457825,201.332944 42.2859173,193.798628 C43.0371981,188.83547 43.1987264,185.257692 42.7705021,183.065295 C40.7779628,179.804137 34.6620075,176.940839 33.7866816,183.052383 C33.6442996,191.9554 35.0697378,205.93133 38.0629964,224.980171 Z" id="Fill-395" fill="#6D6D6D"></path>
                        <path d="M42.7708874,183.06583 L43.4132242,158.254883 L27.5999209,158.254883 L27.5360107,183.06583 L42.7708874,183.06583 Z" id="Fill-396" fill="#6CBA39"></path>
                        <path d="M34.4124564,160.048388 C33.719962,160.048388 33.1577148,159.488318 33.1577148,158.796704 L33.1577148,156.569336 L35.6671979,156.569336 L35.6671979,158.796704 C35.6671979,159.488318 35.1049508,160.048388 34.4124564,160.048388 L34.4124564,160.048388 Z" id="Fill-397" fill="#FED4D5"></path>
                        <path d="M40.0167294,163.262019 C40.3524597,168.333317 42.1087739,173.204476 40.9365492,173.391704 C39.7651335,173.578932 34.0795608,171.450826 33.0149316,171.321703 C31.9503024,171.19258 29.8089091,172.773528 32.1226169,174.139809 C34.4363247,175.504475 40.402617,179.627529 43.4622126,179.835739 C46.5226171,180.04395 47.2159197,175.598897 47.2943916,167.836195 C47.3728635,160.073493 45.6602345,158.303703 43.6644592,158.224609 C41.0082798,158.201479 39.7923698,159.880616 40.0167294,163.262019 Z" id="Fill-398" fill="#A2D680"></path>
                        <path d="M19.0150399,168.498104 C14.9789948,167.501437 18.7860966,158.851016 27.6137819,152.029297 L29.5658712,154.914385 C25.7161635,158.629893 23.7576018,161.120349 23.690186,162.385753 C23.6227703,163.651694 24.9260513,162.274384 27.600029,158.253823 L27.5822306,165.818806 C24.0954892,168.154315 21.239759,169.047414 19.0150399,168.498104 Z" id="Fill-399" fill="#A2D680"></path>
                        <path d="M29.4804535,157.651959 C29.6519591,157.727012 29.8525883,157.651153 29.9286332,157.480872 L32.7908354,151.084451 C32.8668803,150.91417 32.7908355,150.71403 32.6193299,150.637363 L29.2749703,149.148416 C29.1034647,149.072556 28.9036445,149.149223 28.8267906,149.319504 L25.9645884,155.715117 C25.8885434,155.885398 25.9653974,156.085539 26.136094,156.162205 L29.4804535,157.651959 Z" id="Fill-400" fill="#62C1C5"></path>
                        <path d="M31.7350698,150.589362 C31.6598338,150.556274 31.5716541,150.590169 31.5384855,150.665221 C31.5101709,150.727362 31.436553,150.7548 31.3742609,150.727362 L30.0394294,150.133397 C29.9771373,150.105151 29.9488227,150.03252 29.9771373,149.969572 C30.0103059,149.89452 29.9771372,149.807362 29.9010923,149.773467 L29.2814069,149.497467 C29.1956541,149.45873 29.0937216,149.497467 29.0556991,149.583011 L26.3140362,155.708274 C26.2760137,155.794625 26.3148452,155.895502 26.400598,155.933432 L29.4739463,157.30294 C29.5605081,157.34087 29.6616316,157.302941 29.7004631,157.21659 L32.4413171,151.091327 C32.4801485,151.004976 32.4413172,150.904098 32.3547554,150.866169 L31.7350698,150.589362 Z" id="Fill-401" fill="#0A3C5F"></path>
                        <path d="M30.9472871,149.892578 L27.8084106,156.907175 L29.4805905,157.651245 C29.6520961,157.727104 29.8527254,157.650438 29.9287703,157.480157 L32.7909722,151.084543 C32.8670172,150.914262 32.7901634,150.714122 32.6194668,150.637455 L30.9472871,149.892578 Z" id="Fill-402" fill="#45ADAD"></path>
                        <path d="M31.7350764,150.58867 C31.6598405,150.555582 31.5716607,150.589477 31.5384922,150.66453 C31.5101776,150.72667 31.4365595,150.754109 31.3742673,150.72667 L30.7068517,150.429688 L27.9376831,156.617898 L29.4739528,157.302249 C29.5605146,157.340179 29.6616382,157.302249 29.7004696,157.215898 L32.4413238,151.090635 C32.4801552,151.004284 32.4413234,150.903407 32.3547616,150.865477 L31.7350764,150.58867 Z" id="Fill-403" fill="#0A3C5F"></path>
                        <path d="M30.2874278,150.06299 C30.2599222,150.050885 30.2477874,150.018604 30.2599222,149.991972 C30.272057,149.964534 30.3044166,149.952429 30.3311132,149.964534 L30.9847761,150.25506 C31.0114728,150.267972 31.0244166,150.299446 31.0114728,150.326885 C31.0001469,150.353516 30.9677874,150.366429 30.9402817,150.354323 L30.2874278,150.06299 Z" id="Fill-404" fill="#0A3C5F"></path>
                        <path d="M31.1341165,150.439235 C31.1074199,150.427936 31.0952851,150.395656 31.1074199,150.369024 C31.1195547,150.342392 31.1511053,150.330287 31.1778019,150.342392 C31.2044986,150.354498 31.2166334,150.385971 31.2044986,150.412603 C31.1923637,150.439235 31.1608132,150.45134 31.1341165,150.439235 Z" id="Fill-405" fill="#0A3C5F"></path>
                        <path d="M31.2854837,150.506617 C31.2587871,150.495319 31.2466523,150.463038 31.2587871,150.436407 C31.2709219,150.409775 31.3024725,150.39767 31.3291691,150.409775 C31.3558658,150.42188 31.3680006,150.453354 31.3558657,150.479986 C31.3437309,150.506617 31.3121803,150.518723 31.2854837,150.506617 Z" id="Fill-406" fill="#0A3C5F"></path>
                        <path d="M30.1695436,155.008579 C30.9024874,157.414299 33.6223075,158.745878 35.8575435,157.583773 C36.7336783,157.128615 37.5135435,156.303036 37.8800154,154.849597 C39.2277906,154.232498 39.9448243,153.34155 40.0311165,152.176755 C40.1645996,150.377913 38.197139,150.879878 37.984375,152.094439 L36.6624875,147.545281 L34.0170941,147.491211 L31.8934987,148.650088 L29.3783525,148.755807 C29.3454537,151.085936 29.609184,153.170193 30.1695436,155.008579 Z" id="Fill-407" fill="#FED4D5"></path>
                        <path d="M40.0370865,145.645343 C40.6109292,146.880618 40.3544798,148.666279 39.2677383,151.002326 C38.6291765,151.005554 38.2014911,151.369518 37.9846821,152.09422 C36.9934011,151.647671 36.3594235,150.798419 36.0827494,149.546466 C35.6669292,147.669343 31.1778505,150.342185 28.2120976,149.155869 C25.8088617,148.571589 24.659019,146.917741 24.7625695,144.194326 C25.3148392,145.169203 26.1944797,145.614677 27.4014909,145.530747 C25.9895358,144.716735 25.8245021,143.30284 26.9063897,141.289062 C27.252637,142.764829 27.9987943,143.630489 29.1448617,143.886045 C28.9987043,143.18932 29.2400526,142.49932 29.8689065,141.816045 C30.1051314,142.824817 30.7738955,143.345881 31.8751988,143.379238 C33.5263449,143.43008 35.0431992,142.965238 36.1749744,143.082255 C38.3468396,143.306068 39.6342103,144.160431 40.0370865,145.645343 Z" id="Fill-408" fill="#282828"></path>
                        <path d="M28.7056463,150.967772 C28.6732867,152.01528 27.8270844,154.320123 26.8651968,154.552544 C26.6111743,154.614684 25.985826,154.398403 26.1112192,153.090228 C26.2366125,151.782052 26.9768372,149.824228 28.0487473,149.959807 C28.5087923,149.935596 28.7277586,150.271585 28.7056463,150.967772 Z" id="Fill-409" fill="#FED4D5"></path>
                        <path d="M25.431052,177.443056 L23.1505127,164.435547 L32.2168493,164.987547 L34.4965801,177.994248 L25.431052,177.443056 Z" id="Fill-410" fill="#FFFFFF"></path>
                        <path d="M31.7290885,171.915197 C31.5074256,173.354916 31.4710211,176.306987 33.5663019,176.197232 C34.7975829,176.132671 35.3315154,170.991969 33.5663019,170.845092 C32.4892683,170.599221 31.8768638,170.955922 31.7290885,171.915197 Z" id="Fill-411" fill="#FED4D5"></path>
                    </g>
                </g>
            </g>
        </g>
    </g>
</svg>