<?xml version="1.0" encoding="UTF-8"?>
<svg width="303px" height="249px" viewBox="0 0 303 249" version="1.1" xmlns="http://www.w3.org/2000/svg" xmlns:xlink="http://www.w3.org/1999/xlink">
    <title>Group</title>
    <defs>
        <polygon id="path-1" points="299.339691 246.553268 299.339691 0 0 0 0 246.553268"></polygon>
    </defs>
    <g id="Design" stroke="none" stroke-width="1" fill="none" fill-rule="evenodd">
        <g id="Onboarding_2" transform="translate(-36.000000, -244.000000)">
            <g id="Group" transform="translate(36.218872, 244.000000)">
                <path d="M302,234.959961 C302,227.227974 234.394997,220.959961 151,220.959961 C67.6050034,220.959961 0,227.227974 0,234.959961 C0,242.691947 67.6050034,248.959961 151,248.959961 C234.394997,248.959961 302,242.691947 302,234.959961 Z" id="Oval" fill="#BCBCBC" fill-rule="nonzero"></path>
                <g id="Group-153" transform="translate(1.781128, 0.000000)">
                    <path d="M115.709323,121.264123 C123.046728,119.882752 129.387948,123.552685 134.755123,129.623243 C135.971154,131.00004 137.142149,132.530067 138.271156,134.202654 C128.538332,140.587299 101.629933,140.492006 101.820773,135.346172 C103.061486,127.4686 107.691002,122.774584 115.709323,121.264123 Z" id="Fill-4" fill="#3446AD"></path>
                    <path d="M114.921814,122.331314 C115.541661,123.355906 117.152348,123.978742 118.853875,123.987128 C120.579066,123.995768 121.665834,123.51422 122.114181,122.542483 C121.60731,121.801992 121.488735,120.557843 121.758455,118.810039 C120.762527,118.406504 118.797895,118.406504 115.864562,118.810039 C115.761254,119.950508 115.447005,121.124266 114.921814,122.331314 Z" id="Fill-6" fill="#FFD4D6"></path>
                    <path d="M126.766408,111.601366 C127.736637,112.048863 125.056484,117.334968 124.61908,115.269011 C124.650123,114.000468 124.813736,113.106998 125.109919,112.588603 C125.566917,111.631605 126.119079,111.302526 126.766408,111.601366 Z" id="Fill-8" fill="#FFD4D6"></path>
                    <path d="M110.655188,111.601366 C109.686485,112.048863 112.363585,117.334968 112.804043,115.269011 C112.770964,114.000468 112.606842,113.106998 112.311676,112.588603 C111.854679,111.631605 111.302516,111.302526 110.655188,111.601366 Z" id="Fill-10" fill="#FFD4D6"></path>
                    <path d="M114.033939,117.533514 C115.704931,119.532384 117.424015,120.786444 119.066763,120.786444 C120.708748,120.786444 122.701878,119.038384 123.832413,117.237723 C124.962184,115.437063 125.285848,111.565872 125.257604,110.086159 C125.232413,108.60797 123.390428,101.9809 117.155313,102.437545 C113.853532,102.679971 112.247425,105.381978 112.336993,110.543567 C112.103405,113.57262 112.669054,115.902603 114.033939,117.533514 Z" id="Fill-12" fill="#FFD4D6"></path>
                    <path d="M121.771702,109.318359 C123.031244,109.318359 124.057199,110.342952 124.057199,111.600822 C124.057199,112.859455 123.031244,113.883286 121.771702,113.883286 C120.51216,113.883286 119.486206,112.859455 119.486206,111.600822 C119.486206,110.342952 120.51216,109.318359 121.771702,109.318359 Z M121.771729,109.547852 C120.637377,109.547852 119.716003,110.468765 119.716003,111.600848 C119.716003,112.733694 120.637377,113.654608 121.771729,113.654608 C122.904553,113.654608 123.827454,112.733694 123.827454,111.600848 C123.827454,110.468765 122.904553,109.547852 121.771729,109.547852 Z" id="Fill-14" fill="#262626"></path>
                    <path d="M115.64243,109.318359 C116.901972,109.318359 117.927926,110.342952 117.927926,111.600822 C117.927926,112.859455 116.901972,113.883286 115.64243,113.883286 C114.382888,113.883286 113.356934,112.859455 113.356934,111.600822 C113.356934,110.342952 114.382888,109.318359 115.64243,109.318359 Z M115.642456,109.547852 C114.509632,109.547852 113.586731,110.468765 113.586731,111.600848 C113.586731,112.733694 114.509632,113.654608 115.642456,113.654608 C116.776807,113.654608 117.698181,112.733694 117.698181,111.600848 C117.698181,110.468765 116.776807,109.547852 115.642456,109.547852 Z" id="Fill-16" fill="#262626"></path>
                    <mask id="mask-2" fill="white">
                        <use xlink:href="#path-1"></use>
                    </mask>
                    <use id="Clip-19" fill="#000000" xlink:href="#path-1"></use>
                    <path d="M119.758754,110.810359 L119.758754,110.580893 L117.711426,110.580893 L117.711426,110.810359 L119.758754,110.810359 Z" id="Fill-18" fill="#262626" mask="url(#mask-2)"></path>
                    <path d="M119.862978,107.738853 C119.667558,107.307365 119.309288,106.6797 118.788169,105.855858 C119.976973,107.111188 121.219467,107.935284 122.51565,108.328146 C122.398093,108.033881 121.9271,107.502525 121.750764,106.827849 C122.928627,107.974417 123.740077,108.174152 124.343894,108.328146 C124.946184,108.48214 124.530154,109.59059 124.872902,110.506167 C125.217177,111.420982 124.688169,113.242226 124.619467,113.771294 C125.697329,112.065164 125.93855,111.728208 126.642366,111.558205 C127.349237,111.388964 130.579009,103.161729 123.211833,99.9842721 C117.192749,97.3877228 115.147711,99.8851672 114.087405,100.985232 C110.445421,100.454639 109.912596,107.6245 110.907253,111.515512 C112.311833,112.588895 112.295039,112.721544 112.662215,113.771294 C112.791986,111.956911 112.73397,111.093174 112.803436,110.230961 C112.870611,109.367986 114.63626,107.444587 114.087405,105.326791 C114.874683,106.033231 116.799874,106.837252 119.862978,107.738853 Z" id="Fill-20" fill="#282828" mask="url(#mask-2)"></path>
                    <path d="M127.716427,109.129695 C129.050269,104.485993 128.231695,101.434832 125.260702,99.9762107 C120.804214,97.7875162 113.191236,97.5130718 110.859175,101.827948 C110.036274,103.334852 109.579277,104.727911 109.488183,106.007127 C103.543144,105.915138 101.736528,106.451321 104.068335,107.615677 L127.716427,109.129695 Z" id="Fill-21" fill="#F2387F" mask="url(#mask-2)"></path>
                    <path d="M166.978416,100.246475 C171.564676,79.307127 169.107423,69.5277567 169.626507,64.9300499 C170.550934,56.7371206 197.42193,56.2149134 202.33567,74.5378923 C207.250175,92.8608713 201.08376,115.952323 199.116585,117.915363 C227.294447,117.915363 243.457045,119.551357 249.682236,119.551357 C258.30132,119.551357 267.560094,137.54729 256.092918,149.981148 C266.249407,158.160355 267.069254,168.467263 256.092918,179.429031 C262.973835,188.917186 254.782231,202.332941 244.953987,204.950073 C251.834903,215.420891 242.333376,228.50885 224.968491,228.50885 L152.234142,228.50885 L134.214294,219.019165 L134.214294,139.838135 C152.998518,127.404278 163.919892,114.207058 166.978416,100.246475 Z" id="Fill-22" fill="#33907C" opacity="0.400000006" mask="url(#mask-2)"></path>
                    <path d="M194.509928,117.573624 C196.172523,117.573624 197.787027,117.579721 199.36031,117.591156 C201.538172,114.193381 207.063361,92.1646404 202.33588,74.5376835 C197.560308,56.731575 172.056492,56.7239523 169.770996,64.2574525 C176.48779,60.4320018 193.77634,62.694644 197.499241,76.7576351 C202.065653,93.9988441 196.336645,115.727222 194.509928,117.573624 Z" id="Fill-23" fill="#EDEDED" mask="url(#mask-2)"></path>
                    <path d="M249.682306,119.55112 C248.08078,119.55112 245.80826,119.442105 242.856352,119.28125 C250.411314,121.034645 257.486887,136.714571 247.441086,147.746475 C256.876964,155.443117 257.637269,165.140918 247.441086,175.454693 C253.832689,184.384048 246.224291,197.007731 237.09223,199.470108 C243.483833,209.322663 234.657879,228.508614 218.525818,228.508614 L224.968566,228.508614 C242.333451,228.508614 251.834978,215.420662 244.954062,204.949844 C254.782306,202.332712 262.973911,188.916953 256.092995,179.428799 C267.06933,168.467031 266.249483,158.160118 256.092995,149.980911 C267.559407,137.547053 258.301391,119.55112 249.682306,119.55112 Z" id="Fill-24" fill="#EDEDED" mask="url(#mask-2)"></path>
                    <path d="M247.302283,232.999962 L247.302283,123.793945 L245.012207,123.793945 L245.012207,232.999962 L247.302283,232.999962 Z" id="Fill-25" fill="#545454" mask="url(#mask-2)"></path>
                    <path d="M213.332801,232.999962 L213.332801,123.793945 L211.042725,123.793945 L211.042725,232.999962 L213.332801,232.999962 Z" id="Fill-26" fill="#545454" mask="url(#mask-2)"></path>
                    <path d="M245.584751,222.804109 L245.584751,219.945312 L212.187805,219.945312 L212.187805,222.804109 L245.584751,222.804109 Z" id="Fill-27" fill="#545454" mask="url(#mask-2)"></path>
                    <path d="M245.584751,205.269929 L245.584751,202.411133 L212.187805,202.411133 L212.187805,205.269929 L245.584751,205.269929 Z" id="Fill-28" fill="#545454" mask="url(#mask-2)"></path>
                    <path d="M245.584751,187.735749 L245.584751,184.876953 L212.187805,184.876953 L212.187805,187.735749 L245.584751,187.735749 Z" id="Fill-29" fill="#545454" mask="url(#mask-2)"></path>
                    <path d="M245.584751,170.202546 L245.584751,167.34375 L212.187805,167.34375 L212.187805,170.202546 L245.584751,170.202546 Z" id="Fill-30" fill="#545454" mask="url(#mask-2)"></path>
                    <path d="M245.584751,152.668367 L245.584751,149.80957 L212.187805,149.80957 L212.187805,152.668367 L245.584751,152.668367 Z" id="Fill-31" fill="#545454" mask="url(#mask-2)"></path>
                    <path d="M245.584751,135.134187 L245.584751,132.275391 L212.187805,132.275391 L212.187805,135.134187 L245.584751,135.134187 Z" id="Fill-32" fill="#545454" mask="url(#mask-2)"></path>
                    <path d="M24.7352905,231.125107 L24.7352905,221.86261 L129.081093,133.621094 L139.129181,133.621094 L139.129181,231.125107 L24.7352905,231.125107 Z" id="Fill-33" fill="#33907C" opacity="0.400000006" mask="url(#mask-2)"></path>
                    <path d="M129.080986,133.621417 C84.267245,132.109941 53.0641912,145.994288 35.4718246,175.27446 C26.820425,189.673645 23.2415447,208.290634 24.7351835,231.125427 L129.080986,231.125427 L129.080986,133.621417 Z" id="Fill-34" fill="#33907C" opacity="0.400000006" mask="url(#mask-2)"></path>
                    <path d="M112.012038,131.483044 C110.961657,131.585961 107.211275,131.86498 105.881504,134.860998 C105.512801,135.721686 107.090664,136.092186 108.47387,135.351949 C109.857076,134.611711 111.021199,134.6666 111.922725,134.787813 C112.823489,134.909026 113.609748,134.585029 114.245625,134.327356 C114.669544,134.155066 114.750969,133.285992 114.489901,131.720134 C113.538247,131.493971 112.712293,131.414941 112.012038,131.483044 Z" id="Fill-35" fill="#FFD4D6" mask="url(#mask-2)"></path>
                    <path d="M127.329866,129.995944 C122.749714,129.627731 115.370324,130.866542 113.716125,131.311752 C113.928339,132.667203 114.098059,133.832067 114.225286,134.806345 C119.519942,134.213748 123.377449,134.023162 125.797805,134.234586 C129.428339,134.551722 137.466507,136.007039 137.539026,133.726101 C137.589408,132.135848 135.281011,129.374632 133.914598,128.706055 C132.578212,129.811964 130.383301,130.241927 127.329866,129.995944 Z" id="Fill-36" fill="#4E65C6" mask="url(#mask-2)"></path>
                    <path d="M124.560904,127.69085 C125.608232,127.568875 129.333423,127.045906 131.270064,129.692008 C131.812049,130.455116 130.34869,131.151899 128.840293,130.720412 C127.331133,130.290449 126.205942,130.590813 125.350217,130.900325 C124.495255,131.209075 123.659377,131.059656 122.982278,130.942254 C122.531387,130.863479 122.267011,130.031505 122.189148,128.446335 C123.071591,128.023995 123.862176,127.772167 124.560904,127.69085 Z" id="Fill-37" fill="#FFD4D6" mask="url(#mask-2)"></path>
                    <path d="M109.276491,129.482146 C113.673438,128.151091 121.147484,127.798887 122.859697,127.882745 C122.940104,129.252934 123.021529,130.427455 123.103971,131.406307 C117.803718,131.949097 113.99354,132.580065 111.673438,133.299211 C108.192522,134.37793 102.279545,137.197084 101.723819,134.983995 C101.33756,133.440245 102.94901,130.267362 104.141376,129.325103 C104.63298,130.316661 106.344685,130.369008 109.276491,129.482146 Z" id="Fill-38" fill="#4E65C6" mask="url(#mask-2)"></path>
                    <path d="M75.3260922,162.09136 C75.2306724,162.981017 74.9764737,166.157712 71.9863974,167.30123 C71.1276187,167.618366 70.745176,166.285024 71.4772371,165.109487 C72.2085348,163.93395 72.145176,162.948999 72.0176951,162.186653 C71.8909775,161.424308 72.2092981,160.757255 72.4634966,160.217514 C72.6329622,159.857687 73.5021734,159.783486 75.0711303,159.99491 C75.3047182,160.799438 75.3897055,161.498255 75.3260922,162.09136 Z" id="Fill-39" fill="#FFD4D6" mask="url(#mask-2)"></path>
                    <path d="M99.7237301,116.720128 C100.476402,122.625257 103.776402,134.025375 99.800066,132.067671 C93.1336536,128.78501 87.1939588,130.354681 83.8573174,130.229656 C77.1840348,129.979607 78.6107526,130.115305 78.9695312,127.49741 C79.3321266,124.881802 82.5435771,112.452517 84.3580809,109.990903 C86.1710579,107.5331 91.0565548,102.882792 95.969532,107.238072 C97.9674961,109.62269 99.2188955,112.783375 99.7237301,116.720128 Z" id="Fill-40" fill="#282828" mask="url(#mask-2)"></path>
                    <path d="M104.235023,230.255833 C105.046473,232.019138 108.985404,235.337629 109.557923,236.337827 C110.130442,237.338787 109.224335,238.148397 108.460977,238.100369 C107.697618,238.053104 102.628916,237.347172 99.0709002,234.032493 C99.0709002,234.230703 99.0589409,234.62636 99.0350224,235.219465 L97.985404,235.187447 C97.2240809,229.156784 97.2370579,226.04616 98.0243353,225.855573 C98.8116127,225.664987 99.8042336,225.664987 101.002198,225.855573 C102.616956,227.614051 103.694565,229.080804 104.235023,230.255833 Z" id="Fill-41" fill="#444444" mask="url(#mask-2)"></path>
                    <path d="M85.3214321,224.188477 C85.2944601,224.200674 85.2565466,224.219479 85.2076917,224.24489 C84.8588367,224.428615 84.2481496,225.489801 83.45731,226.897853 C82.5031115,228.597884 80.597768,235.051903 80.8840275,235.766983 C81.1702871,236.481301 82.4046382,238.482458 83.5771573,238.816365 C84.7489129,239.14951 86.8076919,237.244408 87.5710506,236.196183 C88.3344094,235.147958 88.5046382,226.491523 87.8588367,224.392023 L85.3214321,224.188477 Z" id="Fill-42" fill="#444444" mask="url(#mask-2)"></path>
                    <path d="M102.92663,228.42859 C103.880065,229.620137 101.256401,231.526001 99.5869352,230.763656 C97.9167062,230.00131 98.2029657,225.950967 97.8212863,224.188424 C97.5668334,223.012887 98.4574186,222.29806 100.493042,222.043945 C101.478793,225.506011 102.289989,227.634226 102.92663,228.42859 Z" id="Fill-43" fill="#FFD4D6" mask="url(#mask-2)"></path>
                    <path d="M84.3197939,226.093762 C83.8900229,226.998666 82.8877329,228.142947 84.3197939,228.952559 C85.7503283,229.762932 88.1839162,229.524318 87.8503284,227.09396 C87.6274277,225.474229 87.7862062,223.790716 88.326664,222.043419 L85.130481,221.329102 C84.876028,223.901764 84.605799,225.489984 84.3197939,226.093762 Z" id="Fill-44" fill="#FFD4D6" mask="url(#mask-2)"></path>
                    <path d="M92.8594894,199.098381 C91.5872248,201.554659 90.3149602,209.516851 89.0426955,222.984959 L83.3175049,222.096066 C85.014197,206.001423 86.7531284,194.735478 88.5342989,188.298231 C90.3154694,181.860984 90.1032556,174.787941 87.8976574,167.079102 L101.002237,167.079102 C96.8460034,185.96901 94.1317541,196.642103 92.8594894,199.098381 Z" id="Fill-45" fill="#2C4199" mask="url(#mask-2)"></path>
                    <path d="M82.5541229,176.481111 C84.7174816,181.944842 91.206031,197.954102 91.7144279,199.859966 C92.0961073,206.212593 95.277024,220.954072 97.185421,225.146973 C99.3905101,224.723617 100.832495,224.088328 101.511375,223.241108 C99.5602301,208.671665 98.3302044,200.243426 97.8212986,197.956388 C97.3123928,195.669351 94.7335124,185.588855 90.0846577,167.714898 L80.1373291,167.079102 C80.3067946,169.70462 81.1123926,172.838623 82.5541229,176.481111 Z" id="Fill-46" fill="#3446AD" mask="url(#mask-2)"></path>
                    <path d="M76.8342819,131.343935 C78.1701598,129.701842 84.3029847,126.186666 90.3472595,127.30274 C95.8872079,128.86809 99.1101083,130.00983 100.015961,130.727959 C101.375503,131.805154 108.317486,145.571592 109.844204,149.95508 C110.862016,152.877405 107.776775,155.259735 100.588482,157.10207 C102.814945,163.264365 103.928177,166.567864 103.928177,167.012566 C103.928177,167.679618 88.7564192,171.777226 76.4472589,167.012566 C77.9103632,160.786743 78.5783024,156.975014 78.4510765,155.577379 L78.9701605,149.764494 C79.4744352,144.181836 79.7344733,140.596791 79.7502748,139.009359 L79.750647,138.763283 C79.7500172,138.687423 79.7486336,138.617729 79.7464962,138.5542 C74.9739771,141.957819 72.3872086,143.885028 71.9861908,144.335829 C71.6587305,144.703733 72.8569437,147.294956 73.9107132,150.179722 L74.1061945,150.723585 C74.2026811,150.996765 74.2969807,151.271465 74.3877172,151.546095 C75.5411524,155.04145 75.3709236,160.019569 75.6755037,160.313072 L71.0312285,161.075417 C72.1930606,154.023719 65.1800837,147.476693 65.799931,145.161449 C67.4693967,138.919363 75.498404,132.986027 76.8342819,131.343935 Z M99.0617676,141.283203 L99.0617676,151.003111 C102.178816,150.304294 103.610114,149.669005 103.355661,149.097246 C103.20165,148.751181 102.61651,147.660369 101.60024,145.824809 L101.180564,145.068534 C100.591657,144.009486 99.8853916,142.747709 99.0617676,141.283203 Z" id="Fill-47" fill="#FFEB75" mask="url(#mask-2)"></path>
                    <path d="M82.9312729,115.792156 C81.8892882,116.019335 83.3564638,121.755224 84.2282195,119.835638 C84.474021,118.590981 84.5088811,117.683536 84.3327996,117.113301 C84.0941228,116.081593 83.6269472,115.641212 82.9312729,115.792156 Z" id="Fill-48" fill="#FFD4D6" mask="url(#mask-2)"></path>
                    <path d="M94.0675077,124.333533 C92.0026224,125.922262 90.0537671,126.774563 88.4507136,126.417786 C86.8491869,126.063295 85.285828,123.92949 84.5728509,121.926807 C83.8598738,119.924888 84.3820112,116.078854 84.7293394,114.643357 C85.075141,113.206335 88.3110185,107.138826 94.2911711,108.933388 C97.4606368,109.882254 97.0952425,111.878583 93.1949883,114.922376 C95.4611464,119.899985 95.7519862,123.037037 94.0675077,124.333533 Z" id="Fill-49" fill="#FFD4D6" mask="url(#mask-2)"></path>
                    <path d="M84.2805067,116.661567 C84.1644762,116.368064 83.4484457,116.433625 84.1881403,113.668597 C84.9263083,110.902045 89.730125,106.764795 94.5102777,107.946431 C99.291194,109.129591 98.644629,116.600579 97.2011175,119.495968 C96.1973007,118.393616 89.5049341,110.956934 89.6285982,109.900323 C87.3293617,113.068631 85.5466645,115.322379 84.2805067,116.661567 Z" id="Fill-50" fill="#282828" mask="url(#mask-2)"></path>
                    <path d="M92.8471985,129.575675 C90.4548321,130.864801 89.2800225,130.934937 87.6517782,130.45161 C86.5652642,130.127359 85.463992,129.253202 84.3479614,127.829141 C85.5026688,126.977855 86.1382922,125.671194 86.2548317,123.909159 C87.3133559,123.73077 89.2296408,124.154889 92.0036864,125.181514 C91.6993612,126.67622 91.9805319,128.14094 92.8471985,129.575675 Z" id="Fill-51" fill="#FFD4D6" mask="url(#mask-2)"></path>
                    <path d="M89.0344849,139.252607 C95.8405919,139.697055 101.790974,133.874259 101.677997,130.726533 C101.601661,128.628558 99.1683274,126.74836 94.3779964,125.085938 C93.7841031,132.539645 92.0029325,137.261869 89.0344849,139.252607 Z" id="Fill-52" fill="#282828" mask="url(#mask-2)"></path>
                    <path d="M287.876562,142.319095 C287.929233,141.041404 289.810149,139.619629 290.669691,139.076077 C291.529997,138.531762 294.670455,137.52699 294.727706,137.784663 C294.784958,138.043861 296.288012,138.791722 295.085722,140.933913 C294.344501,142.254296 290.624653,144.587074 290.344501,145.824361 C290.156714,146.650235 289.219819,146.151661 287.533813,144.328638 C287.728216,143.841245 287.842465,143.171398 287.876562,142.319095 Z" id="Fill-53" fill="#FFD4D6" mask="url(#mask-2)"></path>
                    <path d="M257.308661,142.742614 C257.394157,146.957623 270.946066,157.708984 274.181944,159.444845 C277.417058,161.182231 288.326219,150.18387 290.226982,147.952484 C291.715532,145.49087 288.388813,143.139796 286.69034,143.557561 C284.991867,143.978376 276.275837,151.848833 275.48118,151.59116 C274.68805,151.332725 268.506371,143.09558 263.011714,140.810067 C259.15319,139.288934 257.252172,139.933116 257.308661,142.742614 Z" id="Fill-54" fill="#864596" mask="url(#mask-2)"></path>
                    <path d="M263.47078,230.109972 C264.331086,231.258827 275.889101,230.55747 278.067727,230.79151 C280.24559,231.027837 282.360857,227.861053 279.499025,227.448624 C276.63414,227.035432 266.982231,225.486346 266.465437,223.044553 C266.121925,221.417199 264.945589,221.72112 262.936429,223.956318 C262.718617,227.291326 262.896734,229.342544 263.47078,230.109972 Z" id="Fill-55" fill="#333333" mask="url(#mask-2)"></path>
                    <path d="M253.783953,191.815398 C252.593876,192.593753 252.582426,204.043423 252.216777,206.178753 C251.851128,208.314083 254.856472,210.597309 255.438915,207.795689 C256.022884,204.993306 258.143495,195.562327 260.591586,195.2025 C262.223138,194.962107 261.994131,193.782758 259.904563,191.664454 C256.619067,191.245164 254.578864,191.295479 253.783953,191.815398 Z" id="Fill-56" fill="#333333" mask="url(#mask-2)"></path>
                    <path d="M288.497162,186.394522 C288.964337,189.612383 290.527697,193.665013 259.73533,196.614529 C259.327188,194.719337 259.166119,192.882338 259.252124,191.103531 C270.38444,188.118693 277.122863,186.680401 279.467392,186.788654 C274.018537,178.848824 265.882659,174.039949 264.689529,172.939884 C263.895127,172.208032 264.787493,169.793175 267.366629,165.695312 L276.53075,166.918115 C284.198434,177.757145 288.187238,184.249281 288.497162,186.394522 Z" id="Fill-57" fill="#246642" mask="url(#mask-2)"></path>
                    <path d="M263.306904,192.125732 C263.028278,199.348196 261.49927,219.474884 261.916828,224.201427 L268.313011,224.201427 C269.785785,210.740435 270.754487,202.759946 271.219118,200.25996 C271.913775,196.510744 272.740491,188.448939 271.880186,181.745633 C271.177896,176.264876 270.665173,171.574925 270.342018,167.675781 L257.327515,170.46063 C260.85067,181.570548 262.8438,188.792249 263.306904,192.125732 Z" id="Fill-58" fill="#2F8C57" mask="url(#mask-2)"></path>
                    <path d="M266.203624,121.220982 C266.157314,121.282986 267.741792,124.083844 270.957059,129.623556 C271.790647,128.002809 272.53136,126.822189 273.179197,126.081697 C273.82907,125.340697 272.715329,122.28547 269.837975,116.916016 C267.461385,119.724497 266.249935,121.159486 266.203624,121.220982 Z" id="Fill-59" fill="#FFD4D6" mask="url(#mask-2)"></path>
                    <path d="M283.563679,119.910988 C282.710244,121.30913 283.587343,122.621889 283.727037,123.610651 C283.865205,124.600176 282.669022,124.38062 281.631618,123.903392 C280.281999,125.643827 278.801083,128.915052 275.374366,128.304413 C271.948412,127.696061 268.470549,121.7025 270.380472,118.410692 C270.859353,116.456037 272.387597,113.864062 274.965205,110.634766 L284.637724,114.795649 C284.490651,117.273272 284.132635,118.978385 283.563679,119.910988 Z" id="Fill-60" fill="#FFD4D6" mask="url(#mask-2)"></path>
                    <path d="M275.28978,114.622827 C274.28011,114.815446 273.555428,115.744237 273.115734,117.4092 L271.876039,116.883182 C270.606828,116.395789 269.872477,116.629829 269.672986,117.585302 C269.476039,118.538743 268.693851,119.312524 267.326421,119.906645 C267.091306,114.467054 268.005301,110.98288 270.068406,109.454123 C272.129983,107.925366 274.842706,108.452655 278.206573,111.03599 C277.271205,113.235612 276.29894,114.431224 275.28978,114.622827 Z" id="Fill-61" fill="#703518" mask="url(#mask-2)"></path>
                    <path d="M262.031913,111.526814 C261.189165,110.191184 261.657867,109.717514 263.43802,110.105802 C265.216646,110.494598 266.832422,110.86586 268.285348,111.219588 C269.94489,107.335691 271.898325,105.230347 274.145654,104.903555 C277.515119,104.413366 286.313592,104.994273 284.721226,117.399162 L262.031913,111.526814 Z" id="Fill-62" fill="#7F3C8F" mask="url(#mask-2)"></path>
                    <path d="M275.589314,135.684767 C276.527481,141.657745 277.135878,154.916462 277.589314,158.163292 C277.891604,160.327845 278.754962,164.992892 280.17939,172.158432 C268.088295,173.507784 260.175572,174.583453 256.441221,175.385441 C254.561069,167.4357 252.592366,150.434631 253.571756,143.369974 C254.553435,136.300743 255.821374,133.576119 257.364122,132.014835 C256.309923,126.67994 258.249618,116.844918 261.417557,114.308594 C262.882697,115.397223 266.078626,119.838903 271.005344,127.633634 C273.435879,129.019578 274.963868,131.703289 275.589314,135.684767 Z" id="Fill-63" fill="#C075D2" mask="url(#mask-2)"></path>
                    <path d="M270.281728,113.612594 C268.422949,114.026548 269.838979,120.088721 271.081728,119.346958 C271.909717,118.851433 272.392415,117.611859 272.529819,115.628236 C272.269259,114.009522 271.519896,113.337641 270.281728,113.612594 Z" id="Fill-64" fill="#FFD4D6" mask="url(#mask-2)"></path>
                    <path d="M261.86715,131.277569 C257.727456,132.098615 249.503028,147.306649 248.357227,150.792093 C247.212952,154.2783 259.96715,163.078819 262.499211,164.557007 C265.186998,165.587698 266.922877,161.905569 266.210663,160.308455 C265.499976,158.712103 256.212952,151.520896 256.328982,150.694513 C256.445776,149.870418 263.481654,142.348353 264.772493,136.54614 C265.596412,132.485379 264.627965,130.729189 261.86715,131.277569 Z" id="Fill-65" fill="#864596" mask="url(#mask-2)"></path>
                    <path d="M298.330795,134.000977 L288.692627,142.197718 L289.091864,142.628443 L291.156749,144.03497 L298.728505,134.432464 L298.330795,134.000977 Z" id="Fill-66" fill="#E0E0E0" mask="url(#mask-2)"></path>
                    <path d="M295.811345,132.998047 L288.692261,142.197272 L290.757146,143.602275 L298.330429,134.000531 L295.811345,132.998047 Z" id="Fill-67" fill="#FCFCFC" mask="url(#mask-2)"></path>
                    <path d="M292.342335,138.190539 C293.007221,138.203499 292.520198,139.052752 291.757603,139.403431 C290.995771,139.755635 290.017908,140.483675 289.818671,140.740585 C289.685338,140.912875 289.845389,140.440475 290.298824,139.323385 C291.217908,138.559514 291.899078,138.181899 292.342335,138.190539 Z" id="Fill-68" fill="#FAB490" mask="url(#mask-2)"></path>
                    <path d="M293.897543,138.323453 C293.551996,138.553174 293.559884,138.73817 293.921207,138.878441 C293.414846,138.934346 293.180495,139.120867 293.218154,139.438003 C293.252759,139.564044 293.342327,139.643328 293.486856,139.675855 C293.090418,139.791731 292.850978,139.939118 292.768535,140.118015 C292.645634,140.387123 292.802886,140.522821 292.986092,140.534256 C292.546398,140.728654 292.447925,141.209694 292.839528,141.308037 C293.227314,141.407142 293.926551,141.160142 294.499833,140.679102 C295.074642,140.197299 295.81739,139.169657 295.374642,138.687092 C294.735456,138.215963 294.24309,138.09475 293.897543,138.323453 Z" id="Fill-69" fill="#FFD4D6" mask="url(#mask-2)"></path>
                    <path d="M55.1596718,172.077314 C58.3820635,169.385726 59.4924959,166.203187 58.4909687,162.529697 L36.5421143,161.710938 L42.9466944,174.130311 C46.0673052,174.829128 50.1382977,174.144796 55.1596718,172.077314 Z" id="Fill-70" fill="#5B4199" mask="url(#mask-2)"></path>
                    <path d="M53.4863112,233.141654 L53.5466166,228.293897 C51.1807132,227.695202 50.005904,227.910437 50.022189,228.939604 C50.0359295,229.819351 49.8511967,231.53844 49.6282959,233.021965 L53.4863112,233.141654 Z" id="Fill-71" fill="#FFD4D6" mask="url(#mask-2)"></path>
                    <path d="M48.9736615,218.570688 C48.2026692,212.675469 46.4812953,196.043373 50.6751883,193.863827 C54.8698447,191.683518 56.3774787,199.042441 56.1064863,203.850555 C55.9253158,207.055457 55.3321859,215.357909 54.3270965,228.757912 C53.357122,229.575655 51.7543231,229.719484 49.5186998,229.1894 C49.6698448,226.040913 49.4881654,222.501342 48.9736615,218.570688 Z" id="Fill-72" fill="#5B4199" mask="url(#mask-2)"></path>
                    <path d="M56.0581875,198.425533 C53.6093326,201.00836 51.0701467,201.141516 48.4406298,198.825001 C47.9281617,185.06517 47.5123856,177.089764 47.1933016,174.898783 C46.7162024,171.610786 56.9345231,161.750607 58.9772711,161.773438 C58.8612409,184.276892 57.888213,196.494258 56.0581875,198.425533 Z" id="Fill-73" fill="#5B4199" mask="url(#mask-2)"></path>
                    <path d="M51.622802,230.986575 C48.9220386,230.648856 48.0189852,233.099035 48.1540997,234.883686 C48.2892142,236.667575 51.4350156,235.811461 52.8319621,235.918952 C54.2289087,236.02568 55.2594434,235.456208 54.3747106,233.379578 C54.382853,232.010914 53.4655502,231.213246 51.622802,230.986575 Z" id="Fill-74" fill="#333333" mask="url(#mask-2)"></path>
                    <path d="M37.2630615,232.638852 L37.5042829,227.796432 C39.9027562,227.345632 41.0617893,227.633036 40.9813821,228.658645 C40.9142066,229.536105 40.9913058,231.262818 41.1210768,232.75854 L37.2630615,232.638852 Z" id="Fill-75" fill="#FFD4D6" mask="url(#mask-2)"></path>
                    <path d="M42.6722169,218.37488 C43.8073314,212.538362 46.5592399,196.046536 42.5088582,193.61008 C38.4584765,191.173623 36.4958809,198.425818 36.4676366,203.240793 C36.449316,206.450777 36.5256519,214.774067 36.6966443,228.210663 C37.6142015,229.08736 39.2050412,229.330294 41.4691634,228.939465 C41.5139472,225.78742 41.914965,222.265892 42.6722169,218.37488 Z" id="Fill-76" fill="#5B4199" mask="url(#mask-2)"></path>
                    <path d="M36.853283,197.829979 C39.1362347,200.559685 41.6621889,200.84963 44.4311457,198.699814 C45.7975578,184.998938 46.7079902,177.064952 47.1624432,174.897858 C47.8425958,171.645691 38.2570997,161.171062 36.2166418,161.067383 C34.9341991,183.534727 35.1464128,195.788925 36.853283,197.829979 Z" id="Fill-77" fill="#5B4199" mask="url(#mask-2)"></path>
                    <path d="M39.2574105,230.603931 C41.9734411,230.433927 42.7230593,232.935184 42.4772577,234.7084 C42.2306928,236.480853 39.1451969,235.431103 37.7444335,235.450924 C36.3436701,235.471508 35.349777,234.838761 36.3619907,232.821594 C36.4388356,231.454962 37.4039755,230.715741 39.2574105,230.603931 Z" id="Fill-78" fill="#333333" mask="url(#mask-2)"></path>
                    <path d="M41.1992106,134.432004 C38.8274548,135.240853 37.927455,136.095442 37.3305085,136.371412 C37.495394,137.001109 38.508371,142.288738 38.0923405,144.627615 C37.8149868,146.18585 36.262824,155.723556 33.4358521,173.240734 L61.9885235,178.958328 L60.1656227,146.095131 C60.5070985,141.432116 61.1147321,138.445754 61.9885235,137.136044 C61.0885235,135.324711 54.1900507,134.114868 53.077837,133.954013 C52.3363612,133.84576 50.1910686,133.779058 46.6419592,133.753906 C44.4109157,133.728235 42.5966662,133.954267 41.1992106,134.432004 Z" id="Fill-79" fill="#F68B50" mask="url(#mask-2)"></path>
                    <path d="M44.0982518,138.699881 L45.511229,138.949931 L44.4524503,139.918872 L44.6516869,141.336835 L43.402832,140.630141 L42.1127557,141.257551 L42.3990152,139.854835 L41.402832,138.822619 L42.8287863,138.660239 L43.5035954,137.395508 L44.0982518,138.699881 Z" id="Fill-80" fill="#FFF3B8" mask="url(#mask-2)"></path>
                    <path d="M53.3868606,141.739739 L54.0677767,142.287866 L53.2166315,142.493699 L52.9044179,143.308647 L52.4471659,142.56536 L51.5731201,142.521144 L52.1395323,141.855616 L51.9120514,141.011699 L52.7212117,141.345607 L53.4540361,140.869141 L53.3868606,141.739739 Z" id="Fill-81" fill="#FFF3B8" mask="url(#mask-2)"></path>
                    <path d="M47.8502207,149.056795 L48.7204497,148.964552 L48.2647245,149.710888 L48.621213,150.506777 L47.7708313,150.303993 L47.121213,150.889474 L47.050984,150.019638 L46.2929688,149.583576 L47.1013657,149.248144 L47.2822818,148.393555 L47.8502207,149.056795 Z" id="Fill-82" fill="#FFF3B8" mask="url(#mask-2)"></path>
                    <path d="M42.6198524,145.07358 L43.2824478,145.00192 L42.9351196,145.57063 L43.2068753,146.178219 L42.5587838,146.023463 L42.0648906,146.468673 L42.0114555,145.806195 L41.4351196,145.473812 L42.0496234,145.218426 L42.1870281,144.567383 L42.6198524,145.07358 Z" id="Fill-83" fill="#FFF3B8" mask="url(#mask-2)"></path>
                    <path d="M57.3444946,152.915096 L58.0887694,153.893948 L56.8574717,153.889374 L56.1521281,154.897957 L55.7788457,153.724707 L54.6002197,153.368692 L55.5994564,152.650562 L55.5765556,151.420898 L56.5696853,152.150463 L57.7330441,151.745658 L57.3444946,152.915096 Z" id="Fill-84" fill="#FFF3B8" mask="url(#mask-2)"></path>
                    <path d="M57.4780668,137.782324 L57.9040209,138.344173 L57.1986774,138.340361 L56.7948607,138.918219 L56.5811202,138.24583 L55.906311,138.043046 L56.4780667,137.632142 L56.465853,136.927734 L57.0337919,137.3455 L57.7002041,137.113747 L57.4780668,137.782324 Z" id="Fill-85" fill="#FFF3B8" mask="url(#mask-2)"></path>
                    <path d="M42.7560825,151.832933 L43.4087541,152.691334 L42.3278382,152.685998 L41.7110443,153.571081 L41.3835634,152.541915 L40.3499756,152.230115 L41.2263114,151.600418 L41.2057008,150.522461 L42.0759298,151.162069 L43.095777,150.807578 L42.7560825,151.832933 Z" id="Fill-86" fill="#FFF3B8" mask="url(#mask-2)"></path>
                    <path d="M55.6661167,146.636644 L56.3187883,147.495808 L55.2378724,147.489709 L54.6210785,148.374792 L54.2935976,147.345626 L53.2600098,147.033826 L54.1363456,146.404891 L54.1157349,145.326172 L54.9859639,145.966542 L56.0058112,145.611289 L55.6661167,146.636644 Z" id="Fill-87" fill="#FFF3B8" mask="url(#mask-2)"></path>
                    <path d="M56.7648787,161.623622 L56.2641153,162.966875 L55.5007565,161.752458 L54.0679321,161.692995 L54.9885428,160.592931 L54.6015199,159.212323 L55.9328176,159.745965 L57.1274741,158.953125 L57.031291,160.383286 L58.1564817,161.272943 L56.7648787,161.623622 Z" id="Fill-88" fill="#FFF3B8" mask="url(#mask-2)"></path>
                    <path d="M52.1013576,170.202147 L51.4379988,170.772382 L51.3883805,169.900258 L50.6410522,169.446662 L51.4570828,169.130289 L51.6570828,168.280273 L52.2105179,168.956474 L53.0822737,168.884051 L52.6089911,169.618952 L52.9463959,170.424752 L52.1013576,170.202147 Z" id="Fill-89" fill="#FFF3B8" mask="url(#mask-2)"></path>
                    <path d="M45.8884631,163.448777 L45.8228143,164.320138 L45.1693792,163.738469 L44.3205242,163.945827 L44.6739593,163.146888 L44.2128906,162.402839 L45.0831196,162.489747 L45.6495318,161.824219 L45.8335013,162.678046 L46.643425,163.009666 L45.8884631,163.448777 Z" id="Fill-90" fill="#FFF3B8" mask="url(#mask-2)"></path>
                    <path d="M50.7515849,159.02635 L50.7034932,159.690353 L50.20502,159.24743 L49.5584551,159.404473 L49.8271574,158.796121 L49.4775391,158.230461 L50.1393711,158.296022 L50.5706688,157.789062 L50.7111268,158.440106 L51.3286841,158.69168 L50.7515849,159.02635 Z" id="Fill-91" fill="#FFF3B8" mask="url(#mask-2)"></path>
                    <path d="M40.3815395,172.082461 L39.2838296,172.637449 L39.5097838,171.427606 L38.6433716,170.55472 L39.865509,170.398439 L40.4288678,169.303711 L40.9555852,170.415211 L42.1716158,170.613421 L41.273906,171.457337 L41.4639823,172.673279 L40.3815395,172.082461 Z" id="Fill-92" fill="#FFF3B8" mask="url(#mask-2)"></path>
                    <path d="M55.2629679,174.932812 L54.6331969,175.249948 L54.7629679,174.557738 L54.2667847,174.056877 L54.967548,173.967683 L55.2889221,173.341797 L55.5912122,173.977593 L56.2866321,174.091183 L55.7728915,174.57451 L55.8820518,175.270531 L55.2629679,174.932812 Z" id="Fill-93" fill="#FFF3B8" mask="url(#mask-2)"></path>
                    <path d="M44.0702039,157.944912 L43.1068451,158.432051 L43.3060817,157.370866 L42.5457764,156.605471 L43.6175321,156.469011 L44.1106619,155.510742 L44.5732572,156.483495 L45.6389062,156.658072 L44.8526466,157.397548 L45.0182955,158.463307 L44.0702039,157.944912 Z" id="Fill-94" fill="#FFF3B8" mask="url(#mask-2)"></path>
                    <path d="M46.8679334,171.561885 L45.9045746,172.048262 L46.1045746,170.987839 L45.3435059,170.222444 L46.4160249,170.085984 L46.9091548,169.126953 L47.3709867,170.099706 L48.4366357,170.274283 L47.6503761,171.014521 L47.8167882,172.08028 L46.8679334,171.561885 Z" id="Fill-95" fill="#FFF3B8" mask="url(#mask-2)"></path>
                    <path d="M43.3739786,118.294891 C41.3777955,123.33857 37.8693986,131.298983 41.3365741,133.366465 C44.8029864,135.430897 50.8915355,135.180085 53.9335203,135.176273 C56.9732149,135.173224 58.9129104,134.302626 59.1839027,131.910385 C59.4533684,129.518907 58.7556584,122.003703 57.7083302,119.423925 C56.6602385,116.845672 54.4922996,113.226817 48.0747423,114.387107 C46.2716886,113.628827 44.7047674,114.931422 43.3739786,118.294891 Z" id="Fill-96" fill="#703518" mask="url(#mask-2)"></path>
                    <path d="M57.6624465,124.867007 C58.5319121,125.302306 55.9448892,130.037235 55.6044312,128.145855 C55.6685533,126.991664 55.8428535,126.182561 56.1273319,125.718547 C56.5710979,124.861162 57.0828027,124.577315 57.6624465,124.867007 Z" id="Fill-97" fill="#FFD4D6" mask="url(#mask-2)"></path>
                    <path d="M43.0006756,124.412132 C42.1067825,124.793305 44.3953321,129.678416 44.8510573,127.812194 C44.858182,126.656478 44.7347723,125.838227 44.4808283,125.357441 C44.0899886,124.474136 43.5966044,124.159033 43.0006756,124.412132 Z" id="Fill-98" fill="#FFD4D6" mask="url(#mask-2)"></path>
                    <path d="M45.9072073,129.906975 C47.3720927,131.773197 48.9011003,132.962456 50.3957567,133.008959 C51.8896499,133.055462 53.7522458,131.521623 54.8323984,129.914598 C55.9117877,128.306811 56.3156046,124.79316 56.3339252,123.44762 C56.3499558,122.099793 54.8614058,116.017037 49.1759095,116.257938 C46.1631869,116.384487 44.6247645,118.79782 44.5606423,123.497935 C44.2624235,126.247461 44.7112785,128.383808 45.9072073,129.906975 Z" id="Fill-99" fill="#FFD4D6" mask="url(#mask-2)"></path>
                    <path d="M56.2753611,125.330472 C56.4433,125.097957 57.0600936,125.318274 57.031086,122.709527 C57.001315,120.100018 53.6913915,115.368139 49.2043686,115.339844 C44.7173457,115.311725 43.6058953,122.052386 44.2280327,124.932528 C45.3616205,124.184666 47.4768876,119.609068 47.6051319,118.645463 C50.4840125,121.804115 53.3740889,124.032451 56.2753611,125.330472 Z" id="Fill-100" fill="#703518" mask="url(#mask-2)"></path>
                    <path d="M58.6462479,123.477189 C58.7027364,117.271695 57.1202936,113.218303 50.5019732,112.822646 C43.8828893,112.426226 41.6088433,118.341266 41.7546449,122.408381 C47.6009555,120.035961 53.2314898,120.39223 58.6462479,123.477189 Z" id="Fill-101" fill="#5B4199" mask="url(#mask-2)"></path>
                    <path d="M41.7702882,121.180268 C42.9092195,120.166349 52.2908983,118.165953 58.6298294,122.130151 C59.2201602,122.975847 59.287845,123.871349 58.8328838,124.816657 C56.8008229,123.166433 53.9293216,122.216296 50.21838,121.966247 C45.1832657,121.627003 42.606166,122.769759 41.3580745,123.498561 C40.8735961,122.628471 41.0110007,121.855707 41.7702882,121.180268 Z" id="Fill-102" fill="#FFFFFF" mask="url(#mask-2)"></path>
                    <path d="M45.8029785,134.809821 C47.6258793,136.486219 48.6464897,136.812503 50.1930547,136.74999 C51.2251158,136.708824 52.3945815,136.18433 53.7014518,135.176509 C52.8729532,134.166147 52.6057776,132.869905 52.8999252,131.287784 C52.0062865,130.89238 50.2185002,130.836729 47.5365663,131.12083 C47.4693907,132.508807 46.8915281,133.738471 45.8029785,134.809821 Z" id="Fill-103" fill="#FFD4D6" mask="url(#mask-2)"></path>
                    <path d="M75.8031087,105.153331 C75.8863148,104.279683 75.2405133,103.24518 75.6382232,101.365998 C76.0359331,99.4868157 76.7412766,98.6322259 77.1794446,99.1071672 C77.6168491,99.5813462 77.1450934,100.213331 77.1130323,101.227251 C78.552727,98.5963957 79.1092155,97.0450223 80.3725743,96.4381951 C80.8351698,96.1302075 83.2649405,97.1273558 81.7366962,100.794239 C80.2092153,104.460359 78.4237193,106.399004 78.125246,107.774276 C77.2112511,108.068541 76.3211748,107.898792 75.4550171,107.265028 C75.6316074,106.44017 75.747638,105.736271 75.8031087,105.153331 Z" id="Fill-104" fill="#FFD4D6" mask="url(#mask-2)"></path>
                    <path d="M66.4507856,125.170166 C68.5678341,121.122619 71.2253407,114.76186 74.4233055,106.087891 L79.4866638,107.122394 C76.5009127,116.511443 74.3098183,122.937254 72.9133806,126.399828 C70.8187242,131.593689 62.2164344,140.887447 60.4019306,143.639515 C59.1922614,145.474735 58.0355184,142.509718 56.9317017,134.744465 C61.1607092,132.409655 64.3337372,129.218222 66.4507856,125.170166 Z" id="Fill-105" fill="#F68B50" mask="url(#mask-2)"></path>
                    <path d="M25.5051227,103.59353 C25.476115,102.717595 26.1852754,101.723495 25.9051228,99.8244925 C25.6249701,97.9239646 24.974588,97.0274464 24.5074124,97.4741809 C24.0410002,97.9209155 24.4730615,98.5803447 24.4410005,99.593502 C23.1684813,96.8787892 22.7089394,95.2961593 21.4852753,94.6123352 C21.0432905,94.2761408 18.5555042,95.1215823 19.8532141,98.8753724 C21.1516874,102.6284 22.8119927,104.675298 23.0249698,106.065817 C23.9191174,106.416496 24.8180997,106.302398 25.7219167,105.723523 C25.5967258,104.888501 25.5244611,104.178503 25.5051227,103.59353 Z" id="Fill-106" fill="#FFD4D6" mask="url(#mask-2)"></path>
                    <path d="M33.5955505,124.151224 C31.7339729,119.980177 29.4769754,113.467204 26.8245583,104.612305 L21.7062378,105.330434 C24.1031845,114.886692 25.8909708,121.43575 27.0695968,124.977608 C28.8367723,130.291919 36.845932,140.100257 38.4848633,142.959816 C39.5785019,144.866697 40.9174333,141.979186 42.5016575,134.297283 C38.4258305,131.704799 35.4571282,128.32278 33.5955505,124.151224 Z" id="Fill-107" fill="#F68B50" mask="url(#mask-2)"></path>
                    <path d="M240.09707,94.7880372 C241.397833,94.6035496 243.906231,97.7649971 243.889521,98.0966175 C243.878778,98.3187142 242.961192,98.6200949 241.136765,99.0007596 C240.227859,98.2897452 239.53651,97.9502472 239.062719,97.9822657 C238.352032,98.0295311 238.28791,99.3171328 236.980276,98.7941637 C236.109538,98.4455176 235.117935,98.5626647 234.005467,99.1456051 L233.719971,96.5101762 C237.103686,95.4855836 239.229385,94.9115372 240.09707,94.7880372 Z" id="Fill-108" fill="#FFD4D6" mask="url(#mask-2)"></path>
                    <path d="M241.248933,110.21512 C240.660638,109.978284 237.697024,111.11113 232.358093,113.613657 L238.499315,115.941861 L246.351986,113.550382 C243.538755,111.565742 241.837737,110.453988 241.248933,110.21512 Z" id="Fill-109" fill="#444444" mask="url(#mask-2)"></path>
                    <path d="M239.217374,112.232665 C235.184549,113.678072 237.90287,116.897458 240.31203,117.998285 C243.680732,119.537461 250.645618,121.197088 252.225771,120.443128 C254.752489,119.235572 254.920427,117.288541 253.008977,116.288344 C246.504142,112.619936 241.906941,111.268043 239.217374,112.232665 Z" id="Fill-110" fill="#3C3D3F" mask="url(#mask-2)"></path>
                    <path d="M252.697048,97.0878229 C258.181781,97.3599803 256.664224,103.580721 254.397812,106.011079 C252.1314,108.443724 234.238269,115.186672 226.697048,118.428928 C219.155827,121.66966 201.264987,122.790307 206.224528,109.376835 C210.5029,104.232526 214.230381,103.164734 217.406971,106.173459 C237.277709,99.9354382 249.041068,96.9068928 252.697048,97.0878229 Z" id="Fill-111" fill="#6D6D6D" mask="url(#mask-2)"></path>
                    <path d="M223.366585,70.7896829 C223.139104,72.6528557 224.593048,74.6667188 227.728417,76.8312721 C229.333506,74.4146365 230.533761,72.6587003 231.329181,71.5634637 C232.759715,69.5935625 231.01544,61.2588369 226.375746,65.5813371 C225.008825,67.879047 224.005771,69.6151623 223.366585,70.7896829 Z" id="Fill-112" fill="#FFD4D6" mask="url(#mask-2)"></path>
                    <path d="M230.146965,81.3720627 C229.975209,86.6291986 228.333225,98.0651441 228.192003,100.916317 C228.096838,102.816082 228.201163,103.451371 228.50498,102.822182 C216.973683,107.11368 209.546711,109.298564 206.224065,109.376831 C200.957653,105.634476 205.280553,94.2419815 207.27063,88.3597221 C209.262996,82.4767003 213.591241,76.3535401 215.164523,75.2694845 C215.130935,70.5360804 218.395057,62.443781 221.517195,60.7910156 C222.592004,61.9594374 224.599892,66.2763469 227.540859,73.741744 C229.393785,75.3223413 230.262487,77.8657808 230.146965,81.3720627 Z" id="Fill-113" fill="#6CBA39" mask="url(#mask-2)"></path>
                    <path d="M220.799841,82.6786873 C220.223505,80.331425 216.776176,77.5488634 214.400604,80.8688788 C212.025795,84.1888943 211.786864,99.1369684 212.592971,102.209984 C213.396787,105.283762 216.908238,105.265465 223.075414,103.992348 C229.245643,102.718468 233.805184,101.065703 235.054802,99.4899349 C234.993733,97.9306839 234.729611,96.6651899 234.262436,95.6934528 C226.461927,96.3841383 221.420197,97.2430479 219.137245,98.2701817 C218.814599,97.5601837 218.707729,96.8905899 218.816635,96.2614002 C220.521469,88.7700834 221.182538,84.2425125 220.799841,82.6786873 Z" id="Fill-114" fill="#A2D680" mask="url(#mask-2)"></path>
                    <path d="M262.881257,77.4080204 L250.937745,95.1478043 C250.756066,95.4138629 250.796524,95.7508189 251.020188,95.901001 L251.232402,96.044323 C251.456066,96.1945051 251.785074,96.1022619 251.9637,95.8369656 L263.907974,78.0987056 C264.088127,77.8318846 264.047669,77.4949278 263.824005,77.343221 L263.613318,77.2014247 C263.388128,77.0504803 263.060646,77.1427241 262.881257,77.4080204 Z" id="Fill-115" fill="#EAEAEA" mask="url(#mask-2)"></path>
                    <path d="M251.574385,95.9026407 L229.659117,101.46319 C229.330109,101.546286 229.118659,101.827591 229.184308,102.087551 L229.247667,102.336838 C229.316369,102.59756 229.63469,102.743931 229.962171,102.660835 L251.878963,97.0995234 C252.207971,97.0171901 252.419422,96.7351222 252.35301,96.4744 L252.289652,96.225113 C252.22324,95.9643908 251.903392,95.8187827 251.574385,95.9026407 Z" id="Fill-116" fill="#EAEAEA" mask="url(#mask-2)"></path>
                    <path d="M236.324696,63.7458969 C237.294925,64.1933939 234.614773,69.4794989 234.177368,67.413542 C234.208411,66.1449988 234.372025,65.2515297 234.668208,64.7331346 C235.125205,63.7761367 235.677368,63.4470574 236.324696,63.7458969 Z" id="Fill-117" fill="#FFD4D6" mask="url(#mask-2)"></path>
                    <path d="M220.213598,63.7458969 C219.244896,64.1933939 221.921995,69.4794989 222.362453,67.413542 C222.329375,66.1449988 222.165252,65.2515297 221.870087,64.7331346 C221.41309,63.7761367 220.860927,63.4470574 220.213598,63.7458969 Z" id="Fill-118" fill="#FFD4D6" mask="url(#mask-2)"></path>
                    <path d="M223.59235,69.6780453 C225.263342,71.6769156 226.982426,72.930975 228.625174,72.930975 C230.267159,72.930975 232.260289,71.1829151 233.390823,69.3822546 C234.520594,67.5815941 234.844259,63.710403 234.816014,62.23069 C234.790823,60.7525017 232.948838,54.1254309 226.713724,54.5820759 C223.411943,54.8245019 221.805836,57.5265092 221.895403,62.688098 C221.661815,65.7171513 222.227464,68.0471338 223.59235,69.6780453 Z" id="Fill-119" fill="#FFD4D6" mask="url(#mask-2)"></path>
                    <path d="M229.421389,59.8824072 C229.225969,59.4509195 228.867699,58.8232548 228.34658,57.999413 C229.535384,59.2547427 230.777877,60.0788385 232.07406,60.4717007 C231.956503,60.1774352 231.48551,59.64608 231.309175,58.9714041 C232.487037,60.117972 233.298488,60.3177068 233.902305,60.4717007 C234.504595,60.6256945 234.088564,61.7341449 234.431313,62.6497221 C234.775587,63.5645369 234.24658,65.3857805 234.177877,65.9148483 C235.25574,64.2087187 235.49696,63.8717624 236.200777,63.7017593 C236.907647,63.5325186 240.137419,55.3052837 232.770244,52.1278268 C226.75116,49.5312775 224.706121,52.0287219 223.645816,53.1287868 C220.003831,52.5981942 219.471007,59.7680547 220.465663,63.6590672 C221.870243,64.7324499 221.85345,64.8650984 222.220625,65.9148483 C222.350396,64.1004657 222.292381,63.2367285 222.361846,62.3745155 C222.429022,61.5115402 224.194671,59.5881417 223.645816,57.4703455 C224.433093,58.1767858 226.358284,58.9808064 229.421389,59.8824072 Z" id="Fill-120" fill="#282828" mask="url(#mask-2)"></path>
                    <path d="M178.522202,234.513894 C175.317622,235.331129 167.089379,236.499805 166.432127,239.159629 C165.774875,241.818691 167.00999,243.472981 170.657318,242.906558 C174.305409,242.339373 181.04434,238.946934 182.547394,239.443984 C183.335689,238.539842 183.770294,237.342197 183.85121,235.851048 C182.435434,234.415297 180.659098,233.969579 178.522202,234.513894 Z" id="Fill-121" fill="#333333" mask="url(#mask-2)"></path>
                    <path d="M215.548801,226.825849 C222.380863,230.075728 215.606815,237.112942 204.078571,238.672701 C196.764067,239.663242 189.715213,240.051022 182.932007,239.83604 L182.932007,233.842478 C193.379335,232.215124 200.255417,231.658104 203.560251,232.171416 C201.183661,232.723355 194.887478,233.380751 184.671702,234.143604 L184.91216,221.789793 L197.947274,220.141602 C203.474501,221.643931 209.341677,223.872013 215.548801,226.825849 Z" id="Fill-122" fill="#064560" mask="url(#mask-2)"></path>
                    <path d="M194.305777,234.125499 C197.60654,235.031166 206.100433,236.396527 206.733257,239.160792 C207.366845,241.924295 206.059212,243.615178 202.29509,242.958798 C198.528677,242.303181 191.617227,238.665268 190.052342,239.151644 C189.254378,238.200745 188.825879,236.953293 188.766846,235.409289 C190.258958,233.95016 192.105268,233.52223 194.305777,234.125499 Z" id="Fill-123" fill="#333333" mask="url(#mask-2)"></path>
                    <path d="M156.966516,227.789454 C152.949723,231.846657 157.327585,235.271113 168.759646,237.857752 C178.006975,239.94912 185.45583,240.60855 191.106213,239.83604 L191.106213,233.842478 C180.659392,232.215124 173.783056,231.658104 170.477203,232.171416 C172.854812,232.723355 179.150995,233.380751 189.365753,234.143604 L189.126823,221.789793 L176.090944,220.141602 C166.921987,221.623602 160.547178,224.172886 156.966516,227.789454 Z" id="Fill-124" fill="#064560" mask="url(#mask-2)"></path>
                    <path d="M199.651318,192.568743 C198.716966,193.851771 200.923073,203.01669 200.442921,206.098854 C199.962768,209.181018 199.994066,217.847363 201.657425,221.01491 C201.574219,225.981592 189.52002,226.818647 184.181852,224.249542 C178.840631,221.6812 175.345974,217.400628 175.345974,213.29006 C175.345974,209.181017 174.834524,206.548638 175.167348,200.042018 C175.056661,197.090215 174.93605,193.597147 174.852844,192.568743 C177.381852,190.615613 186.064294,189.587209 187.698646,189.991252 C194.795338,190.368867 198.779562,191.228031 199.651318,192.568743 Z" id="Fill-125" fill="#F59E6E" mask="url(#mask-2)"></path>
                    <path d="M209.749902,208.339219 C212.384507,212.931081 208.928273,219.093376 199.3812,226.826103 L199.651429,217.231218 C202.371022,214.298729 203.803592,212.508741 203.949139,211.861256 C204.166696,210.889265 200.253719,208.019033 199.3812,205.32719 C198.508681,202.637635 198.634635,194.213716 199.651429,192.569336 C204.784762,199.543783 208.15092,204.800411 209.749902,208.339219 Z" id="Fill-126" fill="#F59E6E" mask="url(#mask-2)"></path>
                    <path d="M163.576365,210.594236 C162.026746,214.131012 165.785525,218.742695 174.8527,224.429287 L175.562624,218.563036 C172.328527,214.720306 170.639214,212.474944 170.494685,211.82695 C170.276365,210.854959 174.689342,206.768787 175.562624,204.077706 C176.43438,201.387388 175.869494,194.213716 174.8527,192.569336 C168.933616,201.047636 165.174838,207.055936 163.576365,210.594236 Z" id="Fill-127" fill="#F59E6E" mask="url(#mask-2)"></path>
                    <path d="M199.632767,231.847446 L173.696126,231.847446 C173.097653,231.847446 172.541164,231.312281 172.452615,230.656664 C171.643454,224.645568 170.832767,218.639046 170.023607,212.628712 C169.934294,211.970808 170.442691,211.439453 171.156431,211.439453 L202.170937,211.439453 C202.88544,211.439453 203.393073,211.970808 203.304523,212.628712 C202.496127,218.639046 201.684675,224.645568 200.876278,230.656664 C200.787728,231.312281 200.22895,231.847446 199.632767,231.847446 Z" id="Fill-128" fill="#FCFCFC" mask="url(#mask-2)"></path>
                    <path d="M173.011636,231.84668 L200.269651,231.84668 C200.677285,231.84668 201.008583,232.078433 201.008583,232.362788 L201.008583,232.628084 C201.008583,232.912439 200.677285,233.14343 200.269651,233.14343 L173.011636,233.14343 C172.604003,233.14343 172.272705,232.912439 172.272705,232.628084 L172.272705,232.362788 C172.272705,232.078433 172.604003,231.84668 173.011636,231.84668 Z" id="Fill-129" fill="#EAEAEA" mask="url(#mask-2)"></path>
                    <path d="M192.362359,190.418626 C193.822919,194.092115 190.988822,194.16403 183.860069,190.63437 C184.499764,188.997868 184.113759,187.377883 182.702054,185.774416 C182.027245,185.008513 185.064904,183.638069 191.815031,181.663086 C191.011977,184.56254 191.19442,187.481054 192.362359,190.418626 Z" id="Fill-130" fill="#FFD4D6" mask="url(#mask-2)"></path>
                    <path d="M179.9481,173.433582 C179.516802,175.092446 177.932069,175.37985 177.103825,175.990489 C176.276344,176.603415 177.280161,177.350514 178.362603,177.790387 C178.296955,178.237122 178.192374,178.73036 178.087794,179.250279 C179.630542,179.931054 180.75039,179.938678 180.75039,180.696449 C180.182451,181.959656 180.279397,181.796513 177.808405,181.780504 C177.965657,182.837878 178.438939,184.909172 179.518329,185.721832 C182.377871,187.876983 189.246573,186.169328 190.330543,182.335492 C191.435886,180.555669 192.272781,177.518992 192.841228,173.225461 L182.965657,168.912109 C181.241484,170.81899 180.235631,172.326148 179.9481,173.433582 Z" id="Fill-131" fill="#FFD4D6" mask="url(#mask-2)"></path>
                    <path d="M189.562211,173.328525 C189.365264,174.26621 189.294272,175.272507 189.671371,175.870186 C190.23931,176.775344 190.063737,177.997638 189.144653,179.537068 L190.405722,180.09663 C191.65763,180.703966 192.001651,181.429465 191.437783,182.273128 C190.873406,183.113741 190.85305,184.267424 191.376714,185.734177 C195.554831,181.970222 197.481549,178.752615 197.156867,176.081356 C196.834221,173.411621 194.536511,171.738018 190.263737,171.060547 C189.962974,171.780201 189.729132,172.536194 189.562211,173.328525 Z" id="Fill-132" fill="#703518" mask="url(#mask-2)"></path>
                    <path d="M178.80542,170.484312 C181.202367,166.66496 184.31458,164.198009 190.40542,165.531352 C196.49626,166.864695 198.12145,171.040062 196.629084,174.552189 C194.726285,175.871047 192.65173,175.55264 190.40542,173.59697 C185.436463,170.423579 181.569797,169.386026 178.80542,170.484312 Z" id="Fill-133" fill="#703518" mask="url(#mask-2)"></path>
                    <path d="M193.939213,178.933349 C194.94074,180.641766 189.474328,183.962544 189.146847,182.483593 C188.929035,181.496101 189.50359,180.231624 190.870511,178.690161 C192.24761,177.714867 193.270511,177.795929 193.939213,178.933349 Z" id="Fill-134" fill="#FFD4D6" mask="url(#mask-2)"></path>
                    <path d="M177.805476,23.6413223 C175.107002,24.6567667 174.102422,25.6714486 173.426086,26.0099301 C173.637537,26.7280598 174.991735,32.7726984 174.597079,35.4775009 C174.333974,37.2796861 174.240081,43.2760431 174.315399,53.4665718 L198.428377,54.6268616 L200.032957,36.3778315 C200.259419,31.0027862 200.851531,27.5468191 201.809292,26.0099301 C200.710055,23.9592202 192.733719,22.8134148 191.448223,22.6685691 C190.591735,22.5709889 188.122269,22.5709889 184.039827,22.6685691 C181.473415,22.718884 179.395298,23.043135 177.805476,23.6413223 Z" id="Fill-135" fill="#F76B8D" mask="url(#mask-2)"></path>
                    <path d="M195.206213,66.4355068 C198.815373,63.225015 199.978478,59.5256057 198.695526,55.3372788 L173.42606,55.1787109 L172.307739,66.28685 C177.873134,64.0206501 185.505959,64.0702024 195.206213,66.4355068 Z" id="Fill-136" fill="#A52959" mask="url(#mask-2)"></path>
                    <path d="M179.729823,5.00638247 C177.613793,10.8779688 173.864174,20.1564775 177.925243,22.4099712 C181.986311,24.6619403 188.978677,24.1557425 192.476387,24.0429153 C195.971807,23.9300882 198.171809,22.8612814 198.396999,20.1000652 C198.62219,17.3403738 197.550433,8.72357965 196.253487,5.79388523 C194.95654,2.86647773 192.33364,-1.21817023 184.995472,0.345400751 C182.894709,-0.462177296 181.139492,1.09148328 179.729823,5.00638247 Z" id="Fill-137" fill="#703518" mask="url(#mask-2)"></path>
                    <path d="M196.395644,12.0549585 C197.411675,12.5253258 194.604805,18.06148 194.14679,15.8994677 C194.179868,14.5694286 194.351115,13.6327599 194.66053,13.0894616 C195.140428,12.0872311 195.7188,11.7423968 196.395644,12.0549585 Z" id="Fill-138" fill="#FFD4D6" mask="url(#mask-2)"></path>
                    <path d="M179.518906,12.0549585 C178.504403,12.5253258 181.31051,18.06148 181.768525,15.8994677 C181.735446,14.5694286 181.564199,13.6327599 181.254784,13.0894616 C180.774377,12.0872311 180.195751,11.7423968 179.518906,12.0549585 Z" id="Fill-139" fill="#FFD4D6" mask="url(#mask-2)"></path>
                    <path d="M183.057982,18.2698555 C184.808364,20.3647814 186.609127,21.6775417 188.329738,21.6775417 C190.049585,21.6775417 192.137371,19.8479118 193.321341,17.9611063 C194.50531,16.0727761 194.845769,12.017859 194.816761,10.4695349 C194.78699,8.91968608 192.858745,1.97776643 186.328211,2.45728186 C182.86816,2.7098724 181.185463,5.54020776 181.280119,10.948288 C181.035845,14.1206622 181.628465,16.5611847 183.057982,18.2698555 Z" id="Fill-140" fill="#FFD4D6" mask="url(#mask-2)"></path>
                    <path d="M194.817802,12.6376553 C195.001772,12.3639732 195.71933,12.5949645 195.592612,9.59589672 C195.465131,6.59682894 191.489559,1.2733685 186.32849,1.40068022 C181.167421,1.52799194 180.13078,9.31916499 180.949101,12.6102114 C182.225436,11.7091188 184.494902,6.37193632 184.607879,5.25891161 C188.031798,8.78857199 191.435105,11.2481532 194.817802,12.6376553 Z" id="Fill-141" fill="#703518" mask="url(#mask-2)"></path>
                    <path d="M183.113586,23.9124236 C185.270075,25.7755965 186.454808,26.1133157 188.231143,25.9867663 C189.416385,25.9018919 190.742594,25.2569473 192.209769,24.0519328 C191.220966,22.9195954 190.867531,21.4383577 191.149465,19.6082198 C190.107225,19.1858803 188.048956,19.1858803 184.974655,19.6082198 C184.947174,21.2071129 184.326818,22.6418475 183.113586,23.9124236 Z" id="Fill-142" fill="#FFD4D6" mask="url(#mask-2)"></path>
                    <path d="M208.605745,42.3483582 C209.132463,44.4514157 205.335007,47.8873078 197.213379,52.6560345 L197.663761,48.0933952 C201.309562,44.6633484 203.207781,42.685824 203.358417,42.1608219 C203.508544,41.6348034 202.435262,39.1371046 200.13857,34.6677256 C200.406763,29.982349 200.963761,27.0963624 201.809562,26.0097656 C205.438061,33.2601811 207.703455,38.7063786 208.605745,42.3483582 Z" id="Fill-143" fill="#F76B8D" mask="url(#mask-2)"></path>
                    <path d="M165.356416,42.3483582 C164.829699,44.4514157 169.051582,47.8873078 178.022065,52.6560345 L177.571684,48.0933952 C172.784406,44.6633484 170.315704,42.685824 170.165576,42.1608219 C170.01494,41.6348034 171.658706,39.1371046 175.096874,34.6677256 C174.828681,29.982349 174.271684,27.0963624 173.425882,26.0097656 C168.94802,33.2601811 166.258198,38.7063786 165.356416,42.3483582 Z" id="Fill-144" fill="#F76B8D" mask="url(#mask-2)"></path>
                    <path d="M189.09429,100.603271 C187.713374,103.35229 185.21261,111.041309 180.60803,112.61784 C179.621007,112.947173 179.554595,110.581614 180.0149,107.88596 C180.475206,105.194117 183.036274,96.1885278 185.934748,94.84375 C187.602432,95.3474064 188.589964,95.6647963 188.897343,95.7959198 C189.950269,97.1676337 190.015918,98.7700842 189.09429,100.603271 Z" id="Fill-145" fill="#333333" mask="url(#mask-2)"></path>
                    <path d="M189.225463,97.6978054 C188.965921,99.196577 187.725463,102.398429 184.984241,101.467605 C182.24302,100.538305 183.484241,97.6978054 184.15676,96.8211079 C184.830043,95.941361 186.881951,91.6043764 187.381951,89.8990091 C187.715285,88.763114 189.079661,88.9267642 191.475081,90.3899597 C190.148364,94.2636923 189.398491,96.6996408 189.225463,97.6978054 Z" id="Fill-146" fill="#FFD4D6" mask="url(#mask-2)"></path>
                    <path d="M189.768843,78.1474228 C190.932965,71.4067621 193.49327,56.2223606 198.845179,55.2541816 C204.198614,54.284478 203.345943,62.885262 201.406248,68.0760736 C200.113118,71.537123 197.035765,79.232748 192.174187,91.1629486 C190.829657,91.7326752 189.019479,91.345912 186.743652,90.0026588 C187.984365,86.5934499 188.992762,82.6417046 189.768843,78.1474228 Z" id="Fill-147" fill="#C33E6B" mask="url(#mask-2)"></path>
                    <path d="M182.346053,100.579091 C183.722388,103.315149 186.211701,110.9691 190.796434,112.538008 C191.77735,112.865816 191.843762,110.512455 191.38422,107.829761 C190.926968,105.147066 188.37735,96.1841679 185.491091,94.8447266 C183.831549,95.3468583 182.848597,95.6629776 182.542236,95.7930846 C181.49389,97.1581915 181.428495,98.7535268 182.346053,100.579091 Z" id="Fill-148" fill="#474747" mask="url(#mask-2)"></path>
                    <path d="M182.216293,97.6978054 C182.475072,99.196577 183.716293,102.398429 186.458278,101.467605 C189.199499,100.538305 187.959041,97.6978054 187.285759,96.8211079 C186.614003,95.941361 184.561331,91.6043764 184.062095,89.8990091 C183.728761,88.763114 182.363621,88.9267642 179.966675,90.3899597 C181.293901,94.2636923 182.043774,96.6996408 182.216293,97.6978054 Z" id="Fill-149" fill="#FFD4D6" mask="url(#mask-2)"></path>
                    <path d="M181.673597,78.1474228 C180.510239,71.4067621 177.949933,56.2223606 172.597261,55.2541816 C167.243826,54.284478 168.097262,62.885262 170.036956,68.0760736 C171.330086,71.537123 174.40744,79.232748 179.269017,91.1629486 C180.614056,91.7326752 182.424489,91.345912 184.700315,90.0026588 C183.458585,86.5934499 182.449679,82.6417046 181.673597,78.1474228 Z" id="Fill-150" fill="#C33E6B" mask="url(#mask-2)"></path>
                    <path d="M199.648943,54.626667 L173.521463,54.626667 C172.919173,54.626667 172.358104,54.1052232 172.268791,53.4618034 C171.453524,47.5848808 170.637493,41.7087191 169.822226,35.8317965 C169.73215,35.1876144 170.244363,34.668457 170.963447,34.668457 L202.206959,34.668457 C202.926043,34.668457 203.437492,35.1876144 203.348179,35.8317965 C202.534438,41.7087191 201.716119,47.5848808 200.901615,53.4618034 C200.813066,54.1052232 200.249706,54.626667 199.648943,54.626667 Z" id="Fill-151" fill="#FCFCFC" mask="url(#mask-2)"></path>
                    <path d="M172.832074,54.6269531 L200.290854,54.6269531 C200.700777,54.6269531 201.034365,54.8533698 201.034365,55.1308636 L201.034365,55.3923482 C201.034365,55.6690797 200.700777,55.8954964 200.290854,55.8954964 L172.832074,55.8954964 C172.420624,55.8954964 172.087036,55.6690797 172.087036,55.3923482 L172.087036,55.1308636 C172.087036,54.8533698 172.420624,54.6269531 172.832074,54.6269531 Z" id="Fill-152" fill="#EAEAEA" mask="url(#mask-2)"></path>
                </g>
            </g>
        </g>
    </g>
</svg>